<svg width="330" height="30" viewBox="0 0 330 30" fill="none" xmlns="http://www.w3.org/2000/svg">
<g clip-path="url(#clip0)">
<path d="M176.512 0.292297H177.645V29.31H176.512V0.292297Z" fill="#FF3A4F"/>
<path d="M47.7532 0.342308C48.1152 0.280769 48.5714 0.25 49.1068 0.25C49.6421 0.25 50.0816 0.280769 50.4444 0.342308L44.7473 10.1923C44.3845 10.2538 43.9434 10.2831 43.4089 10.2831C42.8743 10.2831 42.4181 10.2523 42.0553 10.1923L44.1168 6.64615L40.4653 0.343077C40.8272 0.281538 41.2835 0.250769 41.8188 0.250769C42.3542 0.250769 42.7952 0.281538 43.1572 0.343077L45.4552 4.52538L47.7532 0.342308ZM60.3747 0.342308C61.2097 0.205385 62.0447 0.205385 62.8781 0.342308V10.1923C62.0439 10.3285 61.2097 10.3285 60.3755 10.1923V6.22154H56.1407V10.1908C55.3073 10.3277 54.4731 10.3277 53.6397 10.1908V0.343077C54.4731 0.206154 55.3073 0.206154 56.1407 0.343077V4.20692H60.3755V0.342308H60.3747ZM75.8775 10.1923C75.0433 10.3285 74.2092 10.3285 73.3742 10.1923V4.41923L68.6039 10.1923C67.9591 10.2985 67.2983 10.2985 66.6383 10.1923V0.342308C67.4709 0.205385 68.3051 0.205385 69.1393 0.342308V6.11538L73.9103 0.342308C74.5559 0.236154 75.2175 0.236154 75.8783 0.342308V10.1923H75.8775ZM84.0133 0.326923C85.0041 0.326923 85.8079 0.569231 86.4223 1.05462C87.0352 1.53923 87.3492 2.16231 87.3492 2.91923C87.3492 3.91923 86.8778 4.64615 85.9493 5.10077C86.4367 5.31308 86.8307 5.61615 87.1135 6.01C87.3972 6.40385 87.5386 6.87385 87.5386 7.40462C87.5386 8.26769 87.2238 8.95077 86.5957 9.45077C85.9645 9.95077 85.1143 10.1923 84.0444 10.1923H79.6074V0.341538L84.0133 0.326154V0.326923ZM82.1252 4.38846H83.7312C84.062 4.38846 84.3305 4.29769 84.5342 4.11615C84.7388 3.93462 84.8331 3.67769 84.8331 3.35923C84.8331 2.67769 84.4703 2.34385 83.7304 2.34385H82.1244V4.39L82.1252 4.38846ZM82.1252 8.17615H83.8886C84.6285 8.17615 84.9913 7.82692 84.9913 7.11461C84.9913 6.43308 84.5974 6.08385 83.7943 6.08385H82.1244V8.17615H82.1252ZM97.9108 8.17692C98.0371 8.84308 98.0371 9.51 97.9108 10.1923H90.7803V0.341538H97.9108C98.0371 1.02308 98.0371 1.69 97.9108 2.35692H93.3004V4.20538H97.3755C97.5017 4.88769 97.5017 5.55385 97.3755 6.22077H93.3004V8.17461H97.9108V8.17692ZM105.228 0.342308C106.377 0.342308 107.306 0.644615 108.015 1.25C108.723 1.85769 109.085 2.66 109.085 3.64538C109.085 4.63 108.723 5.43231 108.015 6.03923C107.306 6.64538 106.377 6.94692 105.228 6.94692H103.733V10.1908C102.898 10.3262 102.065 10.3262 101.232 10.1908V0.341538H105.228V0.342308ZM105.212 4.90385C105.574 4.90385 105.89 4.79769 106.141 4.58538C106.393 4.37462 106.52 4.05615 106.52 3.63154C106.52 3.20846 106.394 2.88923 106.142 2.67769C105.891 2.46538 105.59 2.35846 105.229 2.35846H103.733V4.93538L105.213 4.90461L105.212 4.90385ZM117.993 8.37385C118.92 8.37385 119.912 8.05538 120.967 7.43385C121.045 7.55538 121.077 7.90308 121.061 8.49538C121.045 9.08615 121.013 9.46461 120.951 9.63154C120.102 10.1315 119.063 10.39 117.835 10.39C116.087 10.39 114.687 9.89 113.632 8.90538C112.577 7.92077 112.058 6.69231 112.058 5.23769C112.058 3.78308 112.593 2.55615 113.648 1.57077C114.702 0.586154 116.103 0.0861538 117.851 0.0861538C119.078 0.0861538 120.117 0.344615 120.967 0.843846C121.031 1.01077 121.061 1.39 121.077 1.98077C121.093 2.57154 121.061 2.91923 120.983 3.04231C119.928 2.41923 118.937 2.10154 118.008 2.10154C117.047 2.10154 116.244 2.39 115.599 2.96538C114.953 3.54231 114.639 4.29923 114.639 5.25385C114.639 6.20769 114.953 6.96615 115.599 7.54231C116.244 8.11769 117.047 8.40538 118.007 8.40538L117.991 8.37461L117.993 8.37385ZM134.029 10.1923C133.196 10.3285 132.362 10.3285 131.527 10.1923V4.41923L126.757 10.1923C126.113 10.2985 125.452 10.2985 124.791 10.1923V0.342308C125.624 0.205385 126.459 0.205385 127.292 0.342308V6.11538L132.062 0.342308C132.708 0.236154 133.369 0.236154 134.03 0.342308V10.1923H134.029ZM145.298 0.342308C145.424 1.02385 145.424 1.69077 145.298 2.35769H142.527V10.1923C141.693 10.3285 140.859 10.3285 140.025 10.1923V2.35769H137.255C137.127 1.67538 137.127 1.00923 137.255 0.342308H145.298ZM155.717 8.17692C155.842 8.84308 155.842 9.51 155.717 10.1923H148.586V0.341538H155.717C155.842 1.02308 155.842 1.69 155.717 2.35692H151.105V4.20538H155.181C155.307 4.88769 155.307 5.55385 155.181 6.22077H151.105V8.17461H155.717V8.17692ZM166.577 0.342308C166.702 1.02385 166.702 1.69077 166.577 2.35769H163.806V10.1923C162.972 10.3285 162.138 10.3285 161.304 10.1923V2.35769H158.534C158.406 1.67538 158.406 1.00923 158.534 0.342308H166.577ZM49.1979 26.38C50.6521 26.38 52.207 25.8815 53.8594 24.9077C53.9825 25.0969 54.032 25.6438 54.008 26.5692C53.9825 27.4946 53.9337 28.09 53.8346 28.35C52.5027 29.1331 50.875 29.5369 48.951 29.5369C46.2135 29.5369 44.0185 28.7523 42.3653 27.21C40.7137 25.6662 39.8995 23.7423 39.8995 21.4638C39.8995 19.1854 40.7385 17.2608 42.3901 15.7177C44.0441 14.1738 46.2399 13.39 48.9773 13.39C50.9014 13.39 52.529 13.7938 53.861 14.5777C53.9593 14.8392 54.0096 15.4331 54.0336 16.3592C54.0576 17.2854 54.0096 17.8315 53.885 18.0208C52.2334 17.0469 50.6793 16.5492 49.2234 16.5492C47.7189 16.5492 46.4612 17.0008 45.4504 17.9031C44.4388 18.8046 43.9458 19.9915 43.9458 21.4877C43.9458 22.9838 44.4388 24.1723 45.4504 25.0738C46.4612 25.9762 47.7197 26.4277 49.2234 26.4277L49.1995 26.3815L49.1979 26.38ZM71.8648 29.2285C70.5568 29.4415 69.2496 29.4415 67.9415 29.2285V20.1823L60.4682 29.2285C59.4574 29.3954 58.4227 29.3954 57.3855 29.2285V13.7946C58.692 13.5808 59.9984 13.5808 61.3064 13.7946V22.8408L68.7805 13.7946C69.7921 13.6285 70.8277 13.6285 71.8648 13.7946V29.2285ZM85.8239 13.7946C87.1311 13.5808 88.4367 13.5808 89.7447 13.7946V29.2285C88.4375 29.4415 87.1319 29.4415 85.8231 29.2285V23.0077H79.1871V29.2285C77.8807 29.4415 76.5743 29.4415 75.2663 29.2285V13.7946C76.5735 13.5808 77.8807 13.5808 79.1871 13.7946V19.85H85.8223V13.7946H85.8239ZM104.395 26.0692C104.592 27.1154 104.592 28.1615 104.395 29.2277H93.2229V13.7946H104.395C104.592 14.8638 104.592 15.9077 104.395 16.9515H97.1685V19.8492H103.557C103.754 20.9185 103.754 21.9623 103.557 23.0077H97.1685V26.0692H104.395ZM113.397 13.7938C115.198 13.7938 116.653 14.2692 117.763 15.2192C118.873 16.1692 119.441 17.4269 119.441 18.9708C119.441 20.5138 118.873 21.7723 117.763 22.7223C116.652 23.6723 115.198 24.1454 113.397 24.1454H111.054V29.2269C109.747 29.4423 108.44 29.4423 107.131 29.2269V13.7938H113.397ZM113.373 20.9415C113.94 20.9415 114.433 20.7754 114.827 20.4438C115.222 20.1108 115.42 19.6131 115.42 18.9477C115.42 18.2823 115.222 17.7846 114.829 17.4523C114.433 17.1192 113.964 16.9523 113.397 16.9523H111.054V20.9908L113.373 20.9415ZM132.833 13.7946C133.03 14.8638 133.03 15.9085 132.833 16.9515H126.223V29.2285C124.915 29.4415 123.608 29.4415 122.3 29.2285V13.7946H132.833ZM149.949 29.2285C148.642 29.4415 147.337 29.4415 146.028 29.2285V20.1823L138.554 29.2285C137.544 29.3954 136.507 29.3954 135.472 29.2285V13.7946C136.779 13.5808 138.085 13.5808 139.393 13.7946V22.8408L146.867 13.7946C147.877 13.6285 148.914 13.6285 149.949 13.7946V29.2285ZM165.661 29.2046C164.353 29.4185 163.045 29.4185 161.737 29.2046V23.9815H160.209L156.682 29.2046C156.115 29.3 155.4 29.3477 154.537 29.3477C153.674 29.3477 152.958 29.3 152.39 29.2046L156.286 23.4123C155.324 23.0077 154.585 22.4138 154.043 21.6308C153.499 20.8462 153.228 19.9462 153.228 18.9231C153.228 17.4031 153.771 16.1692 154.856 15.2192C155.941 14.2692 157.397 13.7946 159.197 13.7946H165.683L165.659 29.2046H165.661ZM159.223 16.9277C158.656 16.9277 158.187 17.0954 157.793 17.4262C157.397 17.7592 157.201 18.2338 157.201 18.8754C157.201 19.5169 157.397 19.9908 157.793 20.3238C158.187 20.6585 158.68 20.8238 159.247 20.8238H161.714V16.9292H159.223V16.9277ZM193.142 4.89538C194.594 4.89538 195.733 5.25385 196.578 5.99077C197.422 6.72769 197.834 7.63538 197.834 8.73154C197.834 9.80846 197.421 10.7162 196.577 11.4531C195.732 12.19 194.595 12.5492 193.141 12.5492H188.411V0.265385H196.615C196.733 0.813077 196.733 1.36154 196.615 1.90923H190.413V4.89538H193.141H193.142ZM193.162 10.9046C194.006 10.9046 194.653 10.6969 195.124 10.2815C195.596 9.86461 195.832 9.33538 195.832 8.71231C195.832 8.07 195.596 7.54077 195.125 7.12462C194.654 6.70923 194.006 6.50154 193.163 6.50154H190.435V10.9423L193.163 10.9038L193.162 10.9046ZM206.701 0.0384615C208.665 0.0384615 210.275 0.661539 211.532 1.90923C212.788 3.15538 213.416 4.66769 213.416 6.46308C213.416 8.25846 212.788 9.77077 211.532 11.0169C210.275 12.2646 208.665 12.8885 206.702 12.8885C204.741 12.8885 203.131 12.2654 201.874 11.0177C200.618 9.77 199.989 8.23923 199.989 6.44462C199.989 4.64923 200.618 3.11846 201.874 1.87077C203.13 0.624615 204.74 0 206.701 0V0.0384615ZM203.366 3.02308C202.483 3.93077 202.032 5.08462 202.032 6.48231C202.032 7.88 202.482 9.03308 203.366 9.94077C204.248 10.8485 205.369 11.3008 206.703 11.3008C208.037 11.3008 209.156 10.8485 210.041 9.94154C210.923 9.03385 211.375 7.88154 211.375 6.48308C211.375 5.08462 210.923 3.93154 210.041 3.02462C209.158 2.11769 208.037 1.66462 206.702 1.66462C205.368 1.66462 204.248 2.11846 203.365 3.02615L203.366 3.02308ZM226.643 12.5862C225.956 12.7185 225.288 12.7185 224.64 12.5862V1.92846H219.93L219.165 9.14692C219.027 10.3946 218.693 11.3208 218.144 11.9446C217.594 12.5677 216.808 12.8708 215.788 12.8708C215.396 12.8708 215.062 12.8323 214.768 12.74C214.649 12.1908 214.649 11.6431 214.768 11.0954C214.943 11.1323 215.102 11.1515 215.258 11.1515C215.807 11.1515 216.239 10.9823 216.553 10.6415C216.867 10.3015 217.064 9.73385 217.141 8.95923L218.084 0.284615H226.624L226.643 12.5862ZM234.471 4.57385C235.943 4.57385 237.101 4.95077 237.945 5.70769C238.79 6.46308 239.222 7.42692 239.222 8.58C239.222 9.73231 238.809 10.6777 237.966 11.4338C237.121 12.1892 235.964 12.5669 234.49 12.5669H229.8V0.284615C230.485 0.151538 231.153 0.151538 231.802 0.284615V4.57385H234.471ZM234.491 10.9231C235.335 10.9231 236.001 10.6962 236.473 10.2615C236.944 9.82692 237.179 9.26 237.179 8.56154C237.179 7.86154 236.943 7.29462 236.472 6.86C236 6.42538 235.333 6.19846 234.49 6.19846H231.801V10.9415L234.489 10.9231H234.491ZM256.042 0.284615C256.708 0.151538 257.376 0.151538 258.062 0.284615V12.5669H241.966V0.284615C242.651 0.151538 243.32 0.151538 243.968 0.284615V10.9415H249.013V0.284615C249.66 0.151538 250.328 0.151538 251.015 0.284615V10.9415H256.039V0.284615H256.042ZM269.953 10.8846C270.091 11.4331 270.091 11.9815 269.953 12.5292H261.278V0.246154H269.954C270.092 0.793846 270.092 1.34231 269.954 1.89H263.279V5.48077H269.344C269.464 6.02923 269.464 6.57692 269.344 7.12462H263.279V10.9423L269.954 10.8854L269.953 10.8846ZM284.397 0.321538C285.082 0.189231 285.75 0.189231 286.418 0.321538V12.6062C285.75 12.7369 285.082 12.7369 284.397 12.6062V7.04846C284.044 7.40769 283.514 7.72846 282.826 8.01231C282.14 8.29538 281.394 8.44692 280.609 8.44692C279.313 8.44692 278.312 8.07 277.605 7.33154C276.898 6.59461 276.546 5.61231 276.546 4.40308V0.303846C277.233 0.170769 277.9 0.170769 278.548 0.303846V4.13846C278.548 5.91538 279.451 6.80385 281.257 6.80385C281.944 6.80385 282.572 6.67154 283.142 6.38846C283.71 6.10385 284.143 5.80231 284.437 5.48077L284.397 0.321538ZM298.35 10.8846C298.488 11.4331 298.488 11.9815 298.35 12.5292H289.674V0.246154H298.35C298.488 0.793846 298.488 1.34231 298.35 1.89H291.675V5.48077H297.74C297.86 6.02923 297.86 6.57692 297.74 7.12462H291.675V10.9423L298.35 10.8854V10.8846ZM316.209 12.5669C315.561 12.6992 314.914 12.6992 314.265 12.5669L312.203 3.70385L308.906 12.5669C308.357 12.68 307.808 12.68 307.26 12.5669L303.96 3.70385L301.9 12.5669C301.252 12.6992 300.606 12.6992 299.956 12.5669L302.939 0.284615C303.508 0.169231 304.077 0.169231 304.647 0.284615L308.102 9.54308L311.557 0.284615C312.126 0.169231 312.695 0.169231 313.263 0.284615L316.209 12.5669H316.209ZM194.634 16.7969C196.597 16.7969 198.205 17.4215 199.463 18.6692C200.72 19.9154 201.349 21.4285 201.349 23.2231C201.349 25.0177 200.72 26.5308 199.463 27.7769C198.207 29.0246 196.598 29.6477 194.634 29.6477C192.672 29.6477 191.063 29.0246 189.806 27.7785C188.549 26.5323 187.92 24.9992 187.92 23.2038C187.92 21.4085 188.55 19.8785 189.806 18.6315C191.062 17.3846 192.672 16.7608 194.634 16.7608V16.7977L194.634 16.7969ZM191.297 19.7838C190.415 20.69 189.962 21.8431 189.962 23.24C189.962 24.6385 190.414 25.7915 191.297 26.6985C192.18 27.6062 193.3 28.06 194.634 28.06C195.969 28.06 197.087 27.6062 197.972 26.6985C198.855 25.7908 199.306 24.6369 199.306 23.2392C199.306 21.8423 198.856 20.6892 197.972 19.7823C197.089 18.8746 195.97 18.4208 194.634 18.4208C193.3 18.4208 192.181 18.8746 191.298 19.7823L191.297 19.7838ZM208.822 21.6538C210.275 21.6538 211.413 22.0131 212.258 22.7492C213.102 23.4877 213.514 24.3938 213.514 25.49C213.514 26.5669 213.102 27.4746 212.257 28.2115C211.413 28.9485 210.275 29.3077 208.821 29.3077H204.091V17.0246H212.297C212.414 17.5731 212.414 18.1215 212.297 18.6692H206.094V21.6554H208.822V21.6538ZM208.842 27.6646C209.685 27.6646 210.331 27.4569 210.804 27.04C211.275 26.6246 211.511 26.0962 211.511 25.4708C211.511 24.8292 211.275 24.3015 210.804 23.8862C210.332 23.4692 209.685 23.2608 208.841 23.2608H206.112V27.7015L208.84 27.6631L208.842 27.6646ZM220.832 17.0431C222.304 17.0431 223.463 17.42 224.306 18.1769C225.151 18.9323 225.583 19.8962 225.583 21.0692C225.583 22.2215 225.171 23.1846 224.329 23.9408C223.483 24.6969 222.326 25.0754 220.853 25.0754H218.164V29.3262C217.515 29.4585 216.848 29.4585 216.162 29.3262V17.0431H220.832ZM220.851 23.4677C221.695 23.4677 222.362 23.2408 222.833 22.8077C223.304 22.3731 223.539 21.7869 223.539 21.0692C223.539 20.35 223.304 19.7654 222.832 19.3308C222.361 18.8954 221.694 18.6692 220.851 18.6692H218.161V23.4677H220.85H220.851ZM238.437 29.3262C237.749 29.4585 237.062 29.4585 236.375 29.3262L235.081 26.2454H229.524L228.249 29.3254C227.562 29.4577 226.875 29.4577 226.187 29.3254L231.487 17.0423C232.037 16.9285 232.606 16.9285 233.176 17.0423L238.437 29.3254V29.3262ZM234.433 24.6208L232.292 19.5185L230.153 24.6208H234.433H234.433ZM247.188 22.9592C247.935 23.2031 248.504 23.6008 248.897 24.1492C249.288 24.6977 249.485 25.32 249.485 26.0392C249.485 27.1362 249.053 28.0054 248.19 28.6485C247.326 29.29 246.187 29.61 244.794 29.61C243.164 29.61 241.79 29.2523 240.671 28.5331C240.613 28.4023 240.573 28.1008 240.573 27.6269C240.573 27.1546 240.613 26.8531 240.691 26.7385C241.929 27.5885 243.282 28.0046 244.735 28.0046C245.518 28.0046 246.186 27.8146 246.715 27.4377C247.246 27.0585 247.522 26.53 247.522 25.85C247.522 25.2631 247.325 24.7923 246.933 24.4138C246.541 24.0338 245.951 23.8446 245.167 23.8446H243.046C242.91 23.3338 242.91 22.8246 243.046 22.3138H245.128C245.756 22.3138 246.267 22.1254 246.64 21.7654C247.013 21.4062 247.207 20.9346 247.207 20.3685C247.207 19.7823 246.993 19.3108 246.56 18.9331C246.129 18.5546 245.541 18.3654 244.794 18.3654C243.46 18.3654 242.164 18.7808 240.908 19.6115C240.828 19.5192 240.788 19.2346 240.788 18.7631C240.788 18.2915 240.83 17.9885 240.887 17.8554C241.987 17.1377 243.321 16.78 244.873 16.78C246.188 16.78 247.227 17.0815 247.994 17.7054C248.759 18.3285 249.152 19.1223 249.152 20.0869C249.152 20.7485 248.973 21.3331 248.622 21.8438C248.269 22.3538 247.797 22.7315 247.207 22.9769L247.188 22.9592ZM258.138 16.7969C260.101 16.7969 261.71 17.4215 262.968 18.6692C264.224 19.9154 264.852 21.4285 264.852 23.2231C264.852 25.0177 264.224 26.5308 262.968 27.7769C261.711 29.0246 260.101 29.6477 258.138 29.6477C256.176 29.6477 254.567 29.0246 253.31 27.7785C252.053 26.5323 251.426 24.9992 251.426 23.2038C251.426 21.4085 252.054 19.8785 253.311 18.6315C254.568 17.3846 256.177 16.7608 258.139 16.7608V16.7977L258.138 16.7969ZM254.802 19.7838C253.919 20.69 253.466 21.8431 253.466 23.24C253.466 24.6385 253.918 25.7915 254.801 26.6985C255.684 27.6062 256.804 28.06 258.138 28.06C259.473 28.06 260.591 27.6062 261.476 26.6985C262.359 25.7908 262.81 24.6369 262.81 23.2392C262.81 21.8423 262.36 20.6892 261.476 19.7823C260.593 18.8746 259.473 18.4208 258.138 18.4208C256.804 18.4208 255.684 18.8746 254.801 19.7823L254.802 19.7838ZM272.778 17.0615C273.955 17.0615 274.917 17.3462 275.663 17.9323C276.41 18.5169 276.781 19.2738 276.781 20.1985C276.781 20.8423 276.625 21.4077 276.291 21.8815C275.957 22.3531 275.507 22.7123 274.917 22.9585C275.644 23.2023 276.193 23.5815 276.585 24.0915C276.978 24.6015 277.174 25.2069 277.174 25.9054C277.174 26.9438 276.781 27.7762 275.997 28.3977C275.211 29.0231 274.151 29.3246 272.796 29.3246H267.593V17.0431L272.777 17.0623L272.778 17.0615ZM269.618 27.7577H272.7C273.467 27.7577 274.074 27.5692 274.506 27.21C274.937 26.8508 275.153 26.3608 275.153 25.7362C275.153 25.1515 274.957 24.6769 274.546 24.3177C274.133 23.9592 273.544 23.7892 272.759 23.7892H269.64L269.62 27.7585L269.618 27.7577ZM269.638 22.41H272.719C273.369 22.41 273.878 22.2408 274.251 21.9C274.624 21.5615 274.82 21.1077 274.82 20.5385C274.82 19.9538 274.623 19.5 274.211 19.1785C273.798 18.8569 273.268 18.6862 272.602 18.6862H269.637V22.4092L269.638 22.41ZM290.894 29.3262C290.207 29.4585 289.519 29.4585 288.832 29.3262L287.538 26.2454H281.981L280.706 29.3254C280.019 29.4577 279.332 29.4577 278.645 29.3254L283.945 17.0423C284.496 16.9285 285.065 16.9285 285.634 17.0423L290.895 29.3254L290.894 29.3262ZM286.889 24.6208L284.748 19.5185L282.609 24.6208H286.889ZM302.236 17.0431C302.883 16.9108 303.551 16.9108 304.238 17.0431V29.3277C303.55 29.4585 302.884 29.4585 302.236 29.3277V23.8846H295.229V29.3269C294.581 29.4592 293.912 29.4592 293.226 29.3269V17.0423C293.913 16.9115 294.58 16.9115 295.228 17.0423V22.2577H302.235V17.0423L302.236 17.0431ZM318.388 29.3262C317.739 29.4592 317.072 29.4592 316.385 29.3262V20.2738L309.005 29.3262C308.476 29.4208 307.946 29.4208 307.415 29.3262V17.0431C308.102 16.9108 308.77 16.9108 309.417 17.0431V26.0969L316.816 17.0431C317.346 16.93 317.877 16.93 318.406 17.0431L318.388 29.3262ZM330.22 27.6446C330.357 28.1931 330.357 28.7408 330.22 29.2885H321.544V17.0054H330.22C330.357 17.5531 330.357 18.1015 330.22 18.65H323.545V22.2408H329.611C329.729 22.7885 329.729 23.3354 329.611 23.8838H323.546V27.7008L330.22 27.6438L330.22 27.6446Z" fill="#082CAF"/>
<path d="M0 29.3292H30.1794V0.275391H0V29.3292ZM26.408 25.6962H3.77303V3.90616H26.408V25.6962ZM18.7437 24.45L8.72223 14.8023L18.7437 5.15231V10.2885L14.0558 14.8015L18.7445 19.3146V24.45H18.7437Z" fill="#FF3A4F"/>
</g>
<defs>
<clipPath id="clip0">
<rect width="330" height="30" fill="white"/>
</clipPath>
</defs>
</svg>
