<svg width="153" height="28" viewBox="0 0 153 28" fill="none" xmlns="http://www.w3.org/2000/svg">
<path d="M43.7255 0.239077C44.0569 0.181641 44.4747 0.152923 44.9648 0.152923C45.455 0.152923 45.8574 0.181641 46.1896 0.239077L40.973 9.43241C40.6409 9.48985 40.237 9.51713 39.7475 9.51713C39.2581 9.51713 38.8403 9.48841 38.5081 9.43241L40.3958 6.12267L37.0522 0.239795C37.3836 0.182359 37.8014 0.153641 38.2916 0.153641C38.7818 0.153641 39.1856 0.182359 39.5171 0.239795L41.6213 4.14328L43.7255 0.239077ZM55.2824 0.239077C56.047 0.111282 56.8115 0.111282 57.5746 0.239077V9.43241C56.8108 9.55949 56.047 9.55949 55.2831 9.43241V5.72636H51.4055V9.43097C50.6424 9.55877 49.8785 9.55877 49.1154 9.43097V0.239795C49.8785 0.112 50.6424 0.112 51.4055 0.239795V3.84605H55.2831L55.2824 0.239077ZM69.4777 9.43241C68.7138 9.55949 67.95 9.55949 67.1854 9.43241V4.0442L62.8176 9.43241C62.2271 9.53149 61.6221 9.53149 61.0177 9.43241V0.239077C61.7801 0.111282 62.5439 0.111282 63.3078 0.239077V5.62728L67.6764 0.239077C68.2675 0.14 68.8733 0.14 69.4784 0.239077L69.4777 9.43241ZM76.9272 0.224718C77.8344 0.224718 78.5705 0.450872 79.1331 0.903897C79.6943 1.35621 79.9818 1.93774 79.9818 2.64421C79.9818 3.57754 79.5501 4.256 78.7 4.68031C79.1463 4.87846 79.507 5.16133 79.766 5.52892C80.0257 5.89651 80.1552 6.33518 80.1552 6.83056C80.1552 7.6361 79.8669 8.27364 79.2919 8.74031C78.7139 9.20697 77.9354 9.43241 76.9557 9.43241H72.893V0.238359L76.9272 0.224718ZM75.1983 4.01549H76.6689C76.9718 4.01549 77.2177 3.93077 77.4042 3.76133C77.5915 3.5919 77.6779 3.3521 77.6779 3.05487C77.6779 2.41877 77.3457 2.10718 76.6682 2.10718H75.1976V4.01692L75.1983 4.01549ZM75.1983 7.55067H76.8131C77.4906 7.55067 77.8227 7.22472 77.8227 6.5599C77.8227 5.92379 77.462 5.59785 76.7267 5.59785H75.1976L75.1983 7.55067ZM89.6526 7.55138C89.7682 8.17313 89.7682 8.79559 89.6526 9.43241H83.1235V0.238359H89.6526C89.7682 0.874461 89.7682 1.49692 89.6526 2.11938H85.431V3.84462H89.1624C89.278 4.48144 89.278 5.10318 89.1624 5.72564H85.431V7.54923H89.6526V7.55138ZM96.353 0.239077C97.4051 0.239077 98.2552 0.521231 98.9042 1.08626C99.5531 1.65344 99.8846 2.40226 99.8846 3.32195C99.8846 4.24092 99.5531 4.98974 98.9042 5.5562C98.2552 6.12195 97.4043 6.40338 96.353 6.40338H94.9833V9.43097C94.2195 9.55733 93.4564 9.55733 92.6933 9.43097V0.238359L96.353 0.239077ZM96.3383 4.49651C96.6698 4.49651 96.9587 4.39744 97.1885 4.19928C97.4197 4.00256 97.5353 3.70533 97.5353 3.30903C97.5353 2.91415 97.4204 2.6162 97.1892 2.41877C96.9595 2.22062 96.6844 2.12082 96.3537 2.12082H94.9841V4.52595L96.339 4.49723L96.3383 4.49651ZM108.041 7.73518C108.89 7.73518 109.798 7.43795 110.764 6.85785C110.836 6.97128 110.865 7.29579 110.85 7.84861C110.836 8.4 110.806 8.75323 110.749 8.90903C109.972 9.37569 109.021 9.61692 107.896 9.61692C106.296 9.61692 105.013 9.15026 104.048 8.23128C103.082 7.31231 102.606 6.16574 102.606 4.8081C102.606 3.45046 103.096 2.30533 104.062 1.38564C105.028 0.466667 106.311 0 107.911 0C109.034 0 109.986 0.241231 110.764 0.707179C110.823 0.862974 110.85 1.21692 110.865 1.76831C110.88 2.31969 110.85 2.6442 110.779 2.75908C109.813 2.17754 108.906 1.88103 108.055 1.88103C107.175 1.88103 106.439 2.15026 105.849 2.68728C105.258 3.22574 104.969 3.9322 104.969 4.82318C104.969 5.71344 105.258 6.42133 105.849 6.95908C106.439 7.4961 107.175 7.76461 108.054 7.76461L108.039 7.7359L108.041 7.73518ZM122.725 9.43241C121.962 9.55949 121.198 9.55949 120.433 9.43241V4.0442L116.065 9.43241C115.476 9.53149 114.871 9.53149 114.266 9.43241V0.239077C115.029 0.111282 115.793 0.111282 116.556 0.239077V5.62728L120.924 0.239077C121.515 0.14 122.121 0.14 122.726 0.239077L122.725 9.43241ZM133.043 0.239077C133.158 0.875179 133.158 1.49764 133.043 2.1201H130.506V9.43241C129.742 9.55949 128.978 9.55949 128.214 9.43241V2.1201H125.678C125.561 1.48328 125.561 0.861538 125.678 0.239077H133.043ZM142.583 7.55138C142.698 8.17313 142.698 8.79559 142.583 9.43241H136.054V0.238359H142.583C142.698 0.874461 142.698 1.49692 142.583 2.11938H138.36V3.84462H142.093C142.208 4.48144 142.208 5.10318 142.093 5.72564H138.36V7.54923H142.583V7.55138ZM152.527 0.239077C152.642 0.875179 152.642 1.49764 152.527 2.1201H149.99V9.43241C149.226 9.55949 148.462 9.55949 147.699 9.43241V2.1201H145.163C145.046 1.48328 145.046 0.861538 145.163 0.239077H152.527ZM45.0483 24.5409C46.3798 24.5409 47.8036 24.0757 49.3166 23.1668C49.4293 23.3434 49.4747 23.8538 49.4527 24.7175C49.4293 25.5812 49.3847 26.1369 49.294 26.3796C48.0743 27.1105 46.584 27.4874 44.8222 27.4874C42.3156 27.4874 40.3058 26.7551 38.792 25.3156C37.2797 23.8747 36.5342 22.0791 36.5342 19.9525C36.5342 17.8259 37.3024 16.0296 38.8147 14.5894C40.3292 13.1485 42.3397 12.4169 44.8463 12.4169C46.6081 12.4169 48.0985 12.7938 49.3181 13.5254C49.4081 13.7695 49.4542 14.3238 49.4761 15.1882C49.4981 16.0526 49.4542 16.5624 49.3401 16.739C47.8278 15.8301 46.4047 15.3655 45.0717 15.3655C43.694 15.3655 42.5424 15.787 41.6169 16.6291C40.6906 17.4706 40.2392 18.5784 40.2392 19.9748C40.2392 21.3712 40.6906 22.4804 41.6169 23.3218C42.5424 24.164 43.6947 24.5854 45.0717 24.5854L45.0497 24.5424L45.0483 24.5409ZM65.8034 27.1995C64.6057 27.3984 63.4087 27.3984 62.211 27.1995V18.7564L55.368 27.1995C54.4425 27.3553 53.495 27.3553 52.5454 27.1995V12.7946C53.7416 12.595 54.9378 12.595 56.1355 12.7946V21.2376L62.9793 12.7946C63.9055 12.6395 64.8537 12.6395 65.8034 12.7946V27.1995ZM78.5851 12.7946C79.7821 12.595 80.9776 12.595 82.1753 12.7946V27.1995C80.9783 27.3984 79.7828 27.3984 78.5844 27.1995V21.3934H72.5081V27.1995C71.3119 27.3984 70.1157 27.3984 68.918 27.1995V12.7946C70.1149 12.595 71.3119 12.595 72.5081 12.7946V18.4463H78.5836V12.7946H78.5851ZM95.5898 24.2509C95.7706 25.2273 95.7706 26.2037 95.5898 27.1988H85.3601V12.7946H95.5898C95.7706 13.7925 95.7706 14.7668 95.5898 15.741H88.9729V18.4455H94.8224C95.0031 19.4435 95.0031 20.4177 94.8224 21.3934H88.9729V24.2509H95.5898ZM103.832 12.7938C105.482 12.7938 106.814 13.2375 107.83 14.1242C108.847 15.0109 109.367 16.1847 109.367 17.6256C109.367 19.0658 108.847 20.2404 107.83 21.1271C106.813 22.0137 105.482 22.4553 103.832 22.4553H101.687V27.198C100.49 27.3991 99.2934 27.3991 98.095 27.198V12.7938H103.832ZM103.811 19.465C104.33 19.465 104.781 19.3099 105.142 19.0005C105.504 18.6896 105.685 18.2251 105.685 17.6041C105.685 16.9831 105.504 16.5186 105.144 16.2084C104.781 15.8975 104.352 15.7417 103.832 15.7417H101.687V19.511L103.811 19.465ZM121.629 12.7946C121.81 13.7925 121.81 14.7675 121.629 15.741H115.577V27.1995C114.379 27.3984 113.182 27.3984 111.984 27.1995V12.7946H121.629ZM137.302 27.1995C136.105 27.3984 134.91 27.3984 133.711 27.1995V18.7564L126.868 27.1995C125.943 27.3553 124.994 27.3553 124.045 27.1995V12.7946C125.242 12.595 126.438 12.595 127.636 12.7946V21.2376L134.479 12.7946C135.405 12.6395 136.354 12.6395 137.302 12.7946V27.1995ZM151.688 27.1772C150.491 27.3768 149.294 27.3768 148.096 27.1772V22.3024H146.696L143.467 27.1772C142.947 27.2663 142.293 27.3108 141.502 27.3108C140.712 27.3108 140.057 27.2663 139.537 27.1772L143.105 21.7711C142.224 21.3934 141.546 20.8392 141.05 20.1083C140.553 19.376 140.304 18.536 140.304 17.5811C140.304 16.1625 140.801 15.0109 141.795 14.1242C142.789 13.2375 144.122 12.7946 145.77 12.7946H151.709L151.687 27.1772H151.688ZM145.793 15.7188C145.274 15.7188 144.844 15.8753 144.484 16.184C144.122 16.4949 143.942 16.9378 143.942 17.5366C143.942 18.1354 144.122 18.5776 144.484 18.8885C144.844 19.2008 145.296 19.3552 145.815 19.3552H148.074V15.7202H145.793V15.7188Z" fill="#333333"/>
<path d="M0 27.2937H27.634V0.176758H0V27.2937ZM24.1806 23.9028H3.4548V3.56548H24.1806V23.9028ZM17.1628 22.7397L7.98657 13.7352L17.1628 4.72855V9.5223L12.8703 13.7345L17.1635 17.9467V22.7397H17.1628Z" fill="#ED1C24"/>
</svg>
