<svg width="27" height="27" viewBox="0 0 27 27" fill="none" xmlns="http://www.w3.org/2000/svg">
<path d="M24.1218 6.51242C20.2218 0.499923 12.2593 -1.28758 6.08435 2.44992C0.0718462 6.18742 -1.87815 14.3124 2.02185 20.3249L2.34685 20.8124L1.04685 25.6874L5.92185 24.3874L6.40935 24.7124C8.52185 25.8499 10.7968 26.4999 13.0718 26.4999C15.5093 26.4999 17.9468 25.8499 20.0593 24.5499C26.0718 20.6499 27.8593 12.6874 24.1218 6.51242ZM20.7093 19.0249C20.0593 19.9999 19.2468 20.6499 18.1093 20.8124C17.4593 20.8124 16.6468 21.1374 13.3968 19.8374C10.6343 18.5374 8.35935 16.4249 6.73435 13.9874C5.75935 12.8499 5.27185 11.3874 5.10935 9.92492C5.10935 8.62492 5.59685 7.48742 6.40935 6.67492C6.73435 6.34992 7.05935 6.18742 7.38435 6.18742H8.19685C8.52185 6.18742 8.84685 6.18742 9.00935 6.83742C9.33435 7.64992 10.1468 9.59992 10.1468 9.76242C10.3093 9.92492 10.3093 10.2499 10.1468 10.4124C10.3093 10.7374 10.1468 11.0624 9.98435 11.2249C9.82185 11.3874 9.65935 11.7124 9.49685 11.8749C9.17185 12.0374 9.00935 12.3624 9.17185 12.6874C9.82185 13.6624 10.6343 14.6374 11.4468 15.4499C12.4218 16.2624 13.3968 16.9124 14.5343 17.3999C14.8593 17.5624 15.1843 17.5624 15.3468 17.2374C15.5093 16.9124 16.3218 16.0999 16.6468 15.7749C16.9718 15.4499 17.1343 15.4499 17.4593 15.6124L20.0593 16.9124C20.3843 17.0749 20.7093 17.2374 20.8718 17.3999C21.0343 17.8874 21.0343 18.5374 20.7093 19.0249Z" fill="white"/>
</svg>
