<svg width="70" height="70" viewBox="0 0 70 70" fill="none" xmlns="http://www.w3.org/2000/svg">
<path d="M9.80002 7.93335H60.2C61.2309 7.93335 62.0667 8.76916 62.0667 9.80002V41.5333H7.93335V9.80002C7.93335 8.76916 8.76916 7.93335 9.80002 7.93335Z" fill="white"/>
<path d="M7.93335 41.5334H62.0667V50.8668C62.0667 51.8976 61.2309 52.7334 60.2 52.7334H9.80002C8.76916 52.7334 7.93335 51.8976 7.93335 50.8668V41.5334Z" fill="#EFEFEF"/>
<path d="M26.5998 19.1332C26.5998 23.2571 23.2571 26.5998 19.1332 26.5998C15.0093 26.5998 11.6665 23.2571 11.6665 19.1332C11.6665 15.0093 15.0093 11.6665 19.1332 11.6665C23.2571 11.6665 26.5998 15.0093 26.5998 19.1332Z" fill="#E8C8AA"/>
<path d="M26.6 19.1332H21C19.9691 19.1332 19.1333 18.2974 19.1333 17.2665V11.6665C23.2572 11.6665 26.6 15.0093 26.6 19.1332Z" fill="#E8C8AA"/>
<path d="M14.4665 34.0668H12.5998C12.0844 34.0668 11.6665 33.6489 11.6665 33.1335V31.2668C11.6665 30.7514 12.0844 30.3335 12.5998 30.3335H14.4665C14.9819 30.3335 15.3998 30.7514 15.3998 31.2668V33.1335C15.3998 33.6489 14.9819 34.0668 14.4665 34.0668Z" fill="#E8C8AA"/>
<path d="M55.5334 30.3335H57.4001C57.9155 30.3335 58.3334 30.7514 58.3334 31.2668V33.1335C58.3334 33.6489 57.9155 34.0668 57.4001 34.0668H55.5334C55.018 34.0668 54.6001 33.6489 54.6001 33.1335V31.2668C54.6001 30.7514 55.018 30.3335 55.5334 30.3335Z" fill="#E8C8AA"/>
<path d="M35.9333 13.5334H49.9333C50.4488 13.5334 50.8667 13.9514 50.8667 14.4668V16.3334C50.8667 16.8489 50.4488 17.2668 49.9333 17.2668H35.9333C35.4179 17.2668 35 16.8489 35 16.3334V14.4668C35 13.9514 35.4179 13.5334 35.9333 13.5334Z" fill="#E8C8AA"/>
<path d="M35.9333 21H54.6C55.1154 21 55.5333 21.4179 55.5333 21.9333V23.8C55.5333 24.3154 55.1154 24.7333 54.6 24.7333H35.9333C35.4179 24.7333 35 24.3154 35 23.8V21.9333C35 21.4179 35.4179 21 35.9333 21Z" fill="#E8C8AA"/>
<path d="M28.4666 52.7334H41.5332V62.0667H28.4666V52.7334Z" fill="#BCBCBC"/>
<path d="M60.2 7H9.8C8.25417 7.00182 7.00182 8.25417 7 9.8V50.8667C7.00182 52.4125 8.25417 53.6648 9.8 53.6667H27.5333V61.1333H21.9333V63H48.0667V61.1333H42.4667V53.6667H60.2C61.7458 53.6648 62.9982 52.4125 63 50.8667V9.8C62.9982 8.25417 61.7458 7.00182 60.2 7ZM40.6 61.1333H29.4V53.6667H40.6V61.1333ZM61.1333 50.8667C61.1329 51.3821 60.7154 51.7995 60.2 51.8H9.8C9.28457 51.7995 8.86712 51.3821 8.86667 50.8667V42.4667H61.1333V50.8667ZM8.86667 40.6V9.8C8.86712 9.28457 9.28457 8.86712 9.8 8.86667H60.2C60.7154 8.86712 61.1329 9.28457 61.1333 9.8V40.6H8.86667Z" fill="#181940"/>
<path d="M36.8666 47.1333C36.8666 48.1641 36.0308 48.9999 35 48.9999C33.9691 48.9999 33.1333 48.1641 33.1333 47.1333C33.1333 46.1024 33.9691 45.2666 35 45.2666C36.0308 45.2666 36.8666 46.1024 36.8666 47.1333Z" fill="#181940"/>
<path d="M19.1334 27.5334C23.7727 27.5334 27.5334 23.7727 27.5334 19.1334C27.5334 14.4941 23.7727 10.7334 19.1334 10.7334C14.4941 10.7334 10.7334 14.4941 10.7334 19.1334C10.7384 23.7704 14.4964 27.5284 19.1334 27.5334ZM25.5924 18.2001H21.0001C20.4846 18.1996 20.0672 17.7822 20.0667 17.2667V12.6748C22.9278 13.0918 25.175 15.339 25.5924 18.2001ZM18.2001 12.6748V17.2667C18.2019 18.8126 19.4542 20.0649 21.0001 20.0667H25.5924C25.113 23.3981 22.1804 25.8194 18.8185 25.6594C15.457 25.4995 12.7678 22.8098 12.6074 19.4483C12.4474 16.0864 14.8687 13.1538 18.2001 12.6748Z" fill="#181940"/>
<path d="M21.9333 33.1333H29.4V35H21.9333V33.1333Z" fill="#181940"/>
<path d="M31.2666 33.1333H33.1333V35H31.2666V33.1333Z" fill="#181940"/>
<path d="M18.2 33.1333H20.0666V35H18.2V33.1333Z" fill="#181940"/>
<path d="M31.2666 36.8667H33.1333V38.7334H31.2666V36.8667Z" fill="#181940"/>
<path d="M15.3999 36.8667H29.3999V38.7334H15.3999V36.8667Z" fill="#181940"/>
<path d="M11.6665 36.8667H13.5332V38.7334H11.6665V36.8667Z" fill="#181940"/>
<path d="M16.3334 33.1332V31.2666C16.332 30.2362 15.4971 29.4013 14.4667 29.3999H12.6001C11.5697 29.4013 10.7348 30.2362 10.7334 31.2666V33.1332C10.7348 34.1636 11.5697 34.9985 12.6001 34.9999H14.4667C15.4971 34.9985 16.332 34.1636 16.3334 33.1332ZM14.4667 33.1332H12.6001V31.2666H14.4667V33.1332Z" fill="#181940"/>
<path d="M21.9333 29.3999H29.4V31.2666H21.9333V29.3999Z" fill="#181940"/>
<path d="M31.2666 29.3999H33.1333V31.2666H31.2666V29.3999Z" fill="#181940"/>
<path d="M18.2 29.3999H20.0666V31.2666H18.2V29.3999Z" fill="#181940"/>
<path d="M40.6001 33.1333H48.0668V35H40.6001V33.1333Z" fill="#181940"/>
<path d="M36.8667 33.1333H38.7334V35H36.8667V33.1333Z" fill="#181940"/>
<path d="M49.9333 33.1333H51.8V35H49.9333V33.1333Z" fill="#181940"/>
<path d="M36.8667 36.8667H38.7334V38.7334H36.8667V36.8667Z" fill="#181940"/>
<path d="M40.6001 36.8667H54.6001V38.7334H40.6001V36.8667Z" fill="#181940"/>
<path d="M56.4666 36.8667H58.3332V38.7334H56.4666V36.8667Z" fill="#181940"/>
<path d="M57.3998 29.3999H55.5332C54.5028 29.4013 53.6679 30.2362 53.6665 31.2666V33.1332C53.6679 34.1636 54.5028 34.9985 55.5332 34.9999H57.3998C58.4302 34.9985 59.2651 34.1636 59.2665 33.1332V31.2666C59.2651 30.2362 58.4302 29.4013 57.3998 29.3999ZM55.5332 33.1332V31.2666H57.3998L57.4007 33.1332H55.5332Z" fill="#181940"/>
<path d="M40.6001 29.3999H48.0668V31.2666H40.6001V29.3999Z" fill="#181940"/>
<path d="M36.8667 29.3999H38.7334V31.2666H36.8667V29.3999Z" fill="#181940"/>
<path d="M49.9333 29.3999H51.8V31.2666H49.9333V29.3999Z" fill="#181940"/>
<path d="M35.9333 18.2001H49.9333C50.9637 18.1987 51.7986 17.3638 51.8 16.3334V14.4668C51.7986 13.4364 50.9637 12.6015 49.9333 12.6001H35.9333C34.9029 12.6015 34.068 13.4364 34.0667 14.4668V16.3334C34.068 17.3638 34.9029 18.1987 35.9333 18.2001ZM35.9333 14.4668H49.9333L49.9342 16.3334H35.9333V14.4668Z" fill="#181940"/>
<path d="M56.4667 23.8V21.9333C56.4653 20.9029 55.6304 20.068 54.6 20.0667H35.9333C34.9029 20.068 34.068 20.9029 34.0667 21.9333V23.8C34.068 24.8304 34.9029 25.6653 35.9333 25.6667H54.6C55.6304 25.6653 56.4653 24.8304 56.4667 23.8ZM35.9333 21.9333H54.6L54.6009 23.8H35.9333V21.9333Z" fill="#181940"/>
<path d="M30.3335 14.4666H32.2002V16.3332H30.3335V14.4666Z" fill="#181940"/>
<path d="M30.3335 21.9333H32.2002V23.8H30.3335V21.9333Z" fill="#181940"/>
</svg>
