<svg width="76" height="76" viewBox="0 0 76 76" fill="none" xmlns="http://www.w3.org/2000/svg">
<path d="M54.625 27.3125H21.375V51.0625H54.625V27.3125Z" fill="#E8C8AA"/>
<path d="M38 3.5625C18.9807 3.5625 3.5625 18.9807 3.5625 38C3.5625 57.0193 18.9807 72.4375 38 72.4375C57.0193 72.4375 72.4375 57.0193 72.4375 38C72.4375 18.9807 57.0193 3.5625 38 3.5625ZM38 62.9375C33.0678 62.9375 28.2464 61.4749 24.1455 58.7348C20.0445 55.9946 16.8482 52.0999 14.9608 47.5432C13.0733 42.9864 12.5794 37.9723 13.5417 33.1349C14.5039 28.2975 16.879 23.8541 20.3665 20.3665C23.8541 16.879 28.2975 14.5039 33.1349 13.5417C37.9723 12.5794 42.9864 13.0733 47.5432 14.9608C52.0999 16.8482 55.9946 20.0445 58.7348 24.1455C61.4749 28.2464 62.9375 33.0678 62.9375 38C62.9373 44.6138 60.3099 50.9566 55.6333 55.6333C50.9566 60.3099 44.6138 62.9373 38 62.9375Z" fill="#E8C8AA"/>
<path d="M41.5625 8.3125L38 13.0625C31.3862 13.0627 25.0434 15.6901 20.3667 20.3667C15.6901 25.0434 13.0627 31.3862 13.0625 38L8.3125 34.4375L3.5625 38C3.5625 18.9807 18.9807 3.5625 38 3.5625L41.5625 8.3125Z" fill="#E8C8AA"/>
<path d="M72.4375 38C72.4375 57.0193 57.0193 72.4375 38 72.4375L34.4375 67.6875L38 62.9375C44.6138 62.9373 50.9566 60.3099 55.6333 55.6333C60.3099 50.9566 62.9373 44.6138 62.9375 38L67.6875 41.5625L72.4375 38Z" fill="#E8C8AA"/>
<path d="M35.625 32.0625H30.875V39.1875H35.625V32.0625Z" fill="white"/>
<path d="M45.125 32.0625H40.375V39.1875H45.125V32.0625Z" fill="white"/>
<path d="M34.4375 67.6875L38 72.4375C18.9807 72.4375 3.5625 57.0193 3.5625 38L8.3125 34.4375L13.0625 38C13.0627 44.6138 15.6901 50.9566 20.3667 55.6333C25.0434 60.3099 31.3862 62.9373 38 62.9375L34.4375 67.6875Z" fill="#E8C8AA"/>
<path d="M55.8125 51.0625V27.3125C55.8125 26.9976 55.6874 26.6955 55.4647 26.4728C55.242 26.2501 54.9399 26.125 54.625 26.125H44.9766V24.7891C44.9756 23.8839 44.6155 23.0161 43.9755 22.3761C43.3355 21.736 42.4677 21.376 41.5625 21.375H34.2891C33.3839 21.376 32.5161 21.736 31.8761 22.3761C31.236 23.0161 30.876 23.8839 30.875 24.7891V26.125H21.375C21.0601 26.125 20.758 26.2501 20.5353 26.4728C20.3126 26.6955 20.1875 26.9976 20.1875 27.3125V51.0625C20.1875 51.3774 20.3126 51.6795 20.5353 51.9022C20.758 52.1249 21.0601 52.25 21.375 52.25H54.625C54.9399 52.25 55.242 52.1249 55.4647 51.9022C55.6874 51.6795 55.8125 51.3774 55.8125 51.0625ZM27.3125 36.8125H29.6875V39.1875C29.6875 39.5024 29.8126 39.8045 30.0353 40.0272C30.258 40.2499 30.5601 40.375 30.875 40.375H35.625C35.9399 40.375 36.242 40.2499 36.4647 40.0272C36.6874 39.8045 36.8125 39.5024 36.8125 39.1875V36.8125H39.1875V39.1875C39.1875 39.5024 39.3126 39.8045 39.5353 40.0272C39.758 40.2499 40.0601 40.375 40.375 40.375H45.125C45.4399 40.375 45.742 40.2499 45.9647 40.0272C46.1874 39.8045 46.3125 39.5024 46.3125 39.1875V36.8125H48.6875V45.125H27.3125V36.8125ZM32.0625 38V33.25H34.4375V38H32.0625ZM41.5625 38V33.25H43.9375V38H41.5625ZM49.1859 34.4375H46.3125V32.0625C46.3125 31.7476 46.1874 31.4455 45.9647 31.2228C45.742 31.0001 45.4399 30.875 45.125 30.875H40.375C40.0601 30.875 39.758 31.0001 39.5353 31.2228C39.3126 31.4455 39.1875 31.7476 39.1875 32.0625V34.4375H36.8125V32.0625C36.8125 31.7476 36.6874 31.4455 36.4647 31.2228C36.242 31.0001 35.9399 30.875 35.625 30.875H30.875C30.5601 30.875 30.258 31.0001 30.0353 31.2228C29.8126 31.4455 29.6875 31.7476 29.6875 32.0625V34.4375H26.8141L23.4213 28.5H52.5787L49.1859 34.4375ZM24.9375 35.9404V45.8205L22.5625 48.1955V31.7841L24.9375 35.9404ZM26.617 47.5H49.383L51.758 49.875H24.242L26.617 47.5ZM51.0625 45.8205V35.9404L53.4375 31.7841V48.1955L51.0625 45.8205ZM33.25 24.7891C33.2503 24.5136 33.3599 24.2495 33.5547 24.0547C33.7495 23.8599 34.0136 23.7503 34.2891 23.75H41.5625C41.838 23.7503 42.1021 23.8599 42.2969 24.0547C42.4916 24.2495 42.6012 24.5136 42.6016 24.7891V26.125H33.25V24.7891Z" fill="#181940"/>
<path d="M38 2.37501C30.9541 2.37499 24.0663 4.46434 18.2078 8.37886C12.3493 12.2934 7.78316 17.8572 5.08679 24.3669C2.39042 30.8765 1.68494 38.0395 3.05956 44.9501C4.43417 51.8606 7.82715 58.2084 12.8094 63.1906C16.1173 66.4997 20.0446 69.1248 24.3671 70.9159C28.6895 72.7071 33.3225 73.6292 38.0014 73.6296C42.6803 73.6301 47.3134 72.7088 51.6363 70.9185C55.9591 69.1282 59.8869 66.5038 63.1954 63.1953C66.5038 59.8869 69.1282 55.9591 70.9185 51.6363C72.7088 47.3134 73.6301 42.6803 73.6296 38.0014C73.6292 33.3225 72.7071 28.6895 70.9159 24.3671C69.1248 20.0446 66.4997 16.1173 63.1906 12.8094C59.8903 9.49093 55.9645 6.86001 51.6405 5.06894C47.3165 3.27787 42.6802 2.36223 38 2.37501ZM71.2428 37.4116L67.6875 40.0781L64.1174 37.4005C63.815 24.0414 53.4352 13.1279 40.2983 11.9773L42.5126 9.02498C42.6667 8.81942 42.75 8.56943 42.75 8.31251C42.75 8.05559 42.6667 7.80559 42.5126 7.60004L40.4412 4.83814C48.713 5.44752 56.4585 9.12654 62.1573 15.1531C67.856 21.1797 71.0966 29.1186 71.2428 37.4116ZM38 61.75C24.9042 61.75 14.25 51.0958 14.25 38C14.25 24.9042 24.9042 14.25 38 14.25C51.0959 14.25 61.75 24.9042 61.75 38C61.75 51.0958 51.0959 61.75 38 61.75ZM14.4888 14.4888C20.5668 8.37755 28.7934 4.88506 37.4116 4.75718L40.0781 8.31251L37.4005 11.8826C24.0414 12.185 13.1279 22.5649 11.9773 35.7017L9.02499 33.4874C8.81944 33.3333 8.56944 33.25 8.31252 33.25C8.0556 33.25 7.80561 33.3333 7.60005 33.4874L4.83815 35.5589C5.40216 27.5998 8.83058 20.1146 14.4888 14.4888ZM4.75719 38.5884L8.31252 35.9219L11.8826 38.5995C12.185 51.9586 22.5649 62.8721 35.7017 64.0227L33.4875 66.975C33.3333 67.1806 33.25 67.4306 33.25 67.6875C33.25 67.9444 33.3333 68.1944 33.4875 68.4L35.5589 71.1619C27.287 70.5525 19.5415 66.8735 13.8428 60.8469C8.14401 54.8203 4.90347 46.8814 4.75719 38.5884ZM61.5113 61.5113C55.4332 67.6225 47.2066 71.115 38.5884 71.2428L35.9219 67.6875L38.5995 64.1174C51.9586 63.815 62.8721 53.4352 64.0227 40.2983L66.975 42.5126C67.1806 42.6667 67.4306 42.75 67.6875 42.75C67.9444 42.75 68.1944 42.6667 68.4 42.5126L71.1619 40.4411C70.5979 48.4002 67.1694 55.8854 61.5113 61.5113Z" fill="#181940"/>
</svg>
