<svg width="76" height="76" viewBox="0 0 76 76" fill="none" xmlns="http://www.w3.org/2000/svg">
<path d="M72.4375 28.5V40.375L61.75 45.125V49.875L58.1875 52.25V54.625L59.375 58.1875L58.1875 59.375L53.4375 55.8125V51.0625H47.5L41.5625 43.9375H34.4375V41.5625L39.1875 36.8125H42.75L46.3125 30.875H52.25L54.625 28.5H72.4375Z" fill="#CE8C4E" fill-opacity="0.48"/>
<path d="M3.5625 28.5V40.375L8.3125 42.75V49.875L14.25 57H16.625V49.875L23.75 46.3125V39.1875L21.375 36.8125L23.75 33.25V28.5H3.5625Z" fill="#CE8C4E" fill-opacity="0.48"/>
<path d="M28.5 27.3125V33.25L30.875 38L36.8125 32.0625V27.3125H28.5Z" fill="#CE8C4E" fill-opacity="0.48"/>
<path d="M21.375 58.1875L23.75 60.5625V72.4375H26.125L30.875 61.75V57L27.3125 51.0625L21.375 53.4375V58.1875Z" fill="#CE8C4E" fill-opacity="0.48"/>
<path d="M39.1875 48.6875L45.125 55.8125H48.6875V60.5625L43.9375 68.875H40.375L38 60.5625L32.0625 51.0625V48.6875H39.1875Z" fill="#CE8C4E" fill-opacity="0.48"/>
<path d="M60.5625 62.9375L62.9375 60.5625H67.6875L70.0625 62.9375V70.0625H66.5L60.5625 66.5V62.9375Z" fill="#CE8C4E" fill-opacity="0.48"/>
<path d="M23.75 3.5625H52.25V22.5625H23.75V3.5625Z" fill="#E8C8AA"/>
<path d="M46.3125 19C46.3125 18.3701 46.5627 17.766 47.0081 17.3206C47.4535 16.8752 48.0576 16.625 48.6875 16.625V9.5C48.0576 9.5 47.4535 9.24978 47.0081 8.80438C46.5627 8.35898 46.3125 7.75489 46.3125 7.125H29.6875C29.6875 7.75489 29.4373 8.35898 28.9919 8.80438C28.5465 9.24978 27.9424 9.5 27.3125 9.5V16.625C27.9424 16.625 28.5465 16.8752 28.9919 17.3206C29.4373 17.766 29.6875 18.3701 29.6875 19H46.3125Z" fill="white"/>
<path d="M38 15.4375C39.3117 15.4375 40.375 14.3742 40.375 13.0625C40.375 11.7508 39.3117 10.6875 38 10.6875C36.6883 10.6875 35.625 11.7508 35.625 13.0625C35.625 14.3742 36.6883 15.4375 38 15.4375Z" fill="white"/>
<path d="M14.25 40.375C15.5617 40.375 16.625 39.3117 16.625 38C16.625 36.6883 15.5617 35.625 14.25 35.625C12.9383 35.625 11.875 36.6883 11.875 38C11.875 39.3117 12.9383 40.375 14.25 40.375Z" fill="white"/>
<path d="M61.75 39.1875C63.0617 39.1875 64.125 38.1242 64.125 36.8125C64.125 35.5008 63.0617 34.4375 61.75 34.4375C60.4383 34.4375 59.375 35.5008 59.375 36.8125C59.375 38.1242 60.4383 39.1875 61.75 39.1875Z" fill="white"/>
<path d="M53.4375 22.5625V3.5625C53.4375 3.24756 53.3124 2.94551 53.0897 2.72281C52.867 2.50012 52.5649 2.375 52.25 2.375H23.75C23.4351 2.375 23.133 2.50012 22.9103 2.72281C22.6876 2.94551 22.5625 3.24756 22.5625 3.5625V22.5625C22.5625 22.8774 22.6876 23.1795 22.9103 23.4022C23.133 23.6249 23.4351 23.75 23.75 23.75H52.25C52.5649 23.75 52.867 23.6249 53.0897 23.4022C53.3124 23.1795 53.4375 22.8774 53.4375 22.5625ZM51.0625 21.375H24.9375V4.75H51.0625V21.375Z" fill="#181940"/>
<path d="M27.3125 17.8125C27.6273 17.8129 27.9292 17.9381 28.1518 18.1607C28.3744 18.3833 28.4996 18.6852 28.5 19C28.5 19.3149 28.6251 19.617 28.8478 19.8397C29.0705 20.0624 29.3726 20.1875 29.6875 20.1875H46.3125C46.6274 20.1875 46.9295 20.0624 47.1522 19.8397C47.3749 19.617 47.5 19.3149 47.5 19C47.5004 18.6852 47.6256 18.3833 47.8482 18.1607C48.0708 17.9381 48.3727 17.8129 48.6875 17.8125C49.0024 17.8125 49.3045 17.6874 49.5272 17.4647C49.7499 17.242 49.875 16.9399 49.875 16.625V9.5C49.875 9.18506 49.7499 8.88301 49.5272 8.66031C49.3045 8.43762 49.0024 8.3125 48.6875 8.3125C48.3727 8.31214 48.0708 8.18691 47.8482 7.96429C47.6256 7.74167 47.5004 7.43983 47.5 7.125C47.5 6.81006 47.3749 6.50801 47.1522 6.28531C46.9295 6.06262 46.6274 5.9375 46.3125 5.9375H29.6875C29.3726 5.9375 29.0705 6.06262 28.8478 6.28531C28.6251 6.50801 28.5 6.81006 28.5 7.125C28.4996 7.43983 28.3744 7.74167 28.1518 7.96429C27.9292 8.18691 27.6273 8.31214 27.3125 8.3125C26.9976 8.3125 26.6955 8.43762 26.4728 8.66031C26.2501 8.88301 26.125 9.18506 26.125 9.5V16.625C26.125 16.9399 26.2501 17.242 26.4728 17.4647C26.6955 17.6874 26.9976 17.8125 27.3125 17.8125ZM28.5 10.484C29.0004 10.3058 29.4548 10.0185 29.8304 9.64291C30.206 9.26733 30.4933 8.81287 30.6715 8.3125H45.3285C45.5067 8.81287 45.794 9.26733 46.1696 9.64291C46.5452 10.0185 46.9996 10.3058 47.5 10.484V15.641C46.9996 15.8192 46.5452 16.1065 46.1696 16.4821C45.794 16.8577 45.5067 17.3121 45.3285 17.8125H30.6715C30.4933 17.3121 30.206 16.8577 29.8304 16.4821C29.4548 16.1065 29.0004 15.8192 28.5 15.641V10.484Z" fill="#181940"/>
<path d="M38 16.625C38.7364 16.6241 39.4545 16.3953 40.0558 15.9701C40.657 15.5449 41.112 14.944 41.3582 14.25H43.9375V11.875H41.3582C41.1128 11.1805 40.658 10.5791 40.0566 10.1537C39.4552 9.7284 38.7366 9.5 38 9.5C37.2634 9.5 36.5448 9.7284 35.9434 10.1537C35.342 10.5791 34.8872 11.1805 34.6418 11.875H32.0625V14.25H34.6418C34.888 14.944 35.343 15.5449 35.9442 15.9701C36.5455 16.3953 37.2636 16.6241 38 16.625ZM38 11.875C38.2349 11.875 38.4645 11.9446 38.6597 12.0751C38.855 12.2056 39.0072 12.3911 39.0971 12.6081C39.187 12.8251 39.2105 13.0638 39.1647 13.2942C39.1189 13.5245 39.0058 13.7361 38.8397 13.9022C38.6736 14.0683 38.462 14.1814 38.2317 14.2272C38.0013 14.273 37.7626 14.2495 37.5456 14.1596C37.3286 14.0697 37.1431 13.9175 37.0126 13.7222C36.8821 13.527 36.8125 13.2974 36.8125 13.0625C36.8129 12.7477 36.9381 12.4458 37.1607 12.2232C37.3833 12.0006 37.6852 11.8754 38 11.875Z" fill="#181940"/>
<path d="M72.4375 27.3125H65.3125V29.6875H71.25V39.6032L61.2677 44.0398C61.0578 44.1331 60.8795 44.2853 60.7543 44.4779C60.6291 44.6705 60.5625 44.8953 60.5625 45.125V49.2395L57.5288 51.262C57.3661 51.3704 57.2328 51.5173 57.1405 51.6897C57.0483 51.862 57 52.0545 57 52.25V54.625C57 54.7527 57.0206 54.8795 57.061 55.0006L57.9699 57.7274L54.625 55.2188V51.0625C54.625 50.7476 54.4999 50.4455 54.2772 50.2228C54.0545 50.0001 53.7524 49.875 53.4375 49.875H48.0562L42.4748 43.1773C42.3634 43.0436 42.2239 42.936 42.0662 42.8621C41.9086 42.7883 41.7366 42.75 41.5625 42.75H35.625V42.0543L39.6793 38H42.75C42.9551 38 43.1566 37.9469 43.3351 37.8459C43.5135 37.7448 43.6627 37.5993 43.7683 37.4235L46.9848 32.0625H52.25C52.5649 32.0625 52.867 31.9374 53.0897 31.7147L55.1168 29.6875H58.1875V27.3125H54.625C54.3101 27.3125 54.008 27.4376 53.7853 27.6603L51.7582 29.6875H46.3125C46.1074 29.6875 45.9059 29.7406 45.7274 29.8416C45.549 29.9427 45.3998 30.0882 45.2942 30.264L42.0777 35.625H39.1875C38.8726 35.625 38.5705 35.7501 38.3478 35.9728L33.5978 40.7228C33.3751 40.9455 33.25 41.2475 33.25 41.5625V43.9375C33.25 44.2524 33.3751 44.5545 33.5978 44.7772C33.8205 44.9999 34.1226 45.125 34.4375 45.125H41.0063L46.5877 51.8227C46.6991 51.9564 46.8386 52.064 46.9963 52.1379C47.1539 52.2117 47.3259 52.25 47.5 52.25H52.25V55.8125C52.25 55.9969 52.293 56.1787 52.3754 56.3436C52.4579 56.5085 52.5776 56.6519 52.725 56.7626L57.475 60.3251C57.7037 60.4965 57.9866 60.5798 58.2717 60.5595C58.5568 60.5392 58.825 60.4168 59.0272 60.2147L60.2147 59.0272C60.3706 58.8713 60.4801 58.675 60.5307 58.4603C60.5814 58.2457 60.5713 58.0211 60.5015 57.8119L59.375 54.4324V52.8855L62.4087 50.863C62.5714 50.7546 62.7047 50.6077 62.797 50.4353C62.8892 50.263 62.9375 50.0705 62.9375 49.875V45.8968L72.9198 41.4602C73.1297 41.3669 73.308 41.2147 73.4332 41.0221C73.5584 40.8295 73.625 40.6047 73.625 40.375V28.5C73.625 28.1851 73.4999 27.883 73.2772 27.6603C73.0545 27.4376 72.7524 27.3125 72.4375 27.3125Z" fill="#181940"/>
<path d="M3.03144 41.4371L7.125 43.4839V49.875C7.12502 50.1528 7.2224 50.4218 7.4002 50.6352L13.3377 57.7602C13.4491 57.8939 13.5886 58.0015 13.7463 58.0754C13.9039 58.1492 14.0759 58.1875 14.25 58.1875H16.625C16.9399 58.1875 17.242 58.0624 17.4647 57.8397C17.6874 57.617 17.8125 57.3149 17.8125 57V50.6089L24.2811 47.3746C24.4783 47.276 24.6442 47.1244 24.7601 46.9368C24.8761 46.7492 24.9375 46.533 24.9375 46.3125V39.1875C24.9375 38.8725 24.8124 38.5705 24.5897 38.3478L22.9031 36.6612L24.738 33.9087C24.8681 33.7136 24.9375 33.4844 24.9375 33.25V28.5C24.9375 28.1851 24.8124 27.883 24.5897 27.6603C24.367 27.4376 24.0649 27.3125 23.75 27.3125H17.8125V29.6875H22.5625V32.8905L20.387 36.1538C20.2347 36.3822 20.1662 36.6564 20.1933 36.9295C20.2203 37.2027 20.3412 37.4581 20.5353 37.6522L22.5625 39.6793V45.5786L16.0939 48.8129C15.8967 48.9115 15.7308 49.0631 15.6149 49.2507C15.4989 49.4383 15.4375 49.6545 15.4375 49.875V55.8125H14.8062L9.5 49.4451V42.75C9.5 42.5295 9.43859 42.3133 9.32264 42.1257C9.2067 41.9381 9.04081 41.7865 8.84356 41.6879L4.75 39.6411V29.6875H10.6875V27.3125H3.5625C3.24756 27.3125 2.94551 27.4376 2.72281 27.6603C2.50012 27.883 2.375 28.1851 2.375 28.5V40.375C2.375 40.5955 2.43641 40.8117 2.55236 40.9993C2.6683 41.1869 2.83419 41.3385 3.03144 41.4371Z" fill="#181940"/>
<path d="M38 32.0625V27.3125C38 26.9976 37.8749 26.6955 37.6522 26.4728C37.4295 26.2501 37.1274 26.125 36.8125 26.125H28.5C28.1851 26.125 27.883 26.2501 27.6603 26.4728C27.4376 26.6955 27.3125 26.9976 27.3125 27.3125V33.25C27.3125 33.4344 27.3554 33.6162 27.4379 33.7811L29.8129 38.5311C29.897 38.6994 30.02 38.8453 30.1716 38.9567C30.3232 39.0682 30.4991 39.142 30.6848 39.1722C30.8705 39.2023 31.0607 39.1879 31.2398 39.1301C31.4189 39.0723 31.5816 38.9728 31.7147 38.8397L37.6522 32.9022C37.8749 32.6795 38 32.3775 38 32.0625ZM35.625 31.5707L31.2003 35.9954L29.6875 32.9697V28.5H35.625V31.5707Z" fill="#181940"/>
<path d="M23.75 73.625H26.125C26.3547 73.625 26.5795 73.5583 26.7721 73.4332C26.9647 73.308 27.1169 73.1297 27.2102 72.9198L31.9602 62.2322C32.0276 62.0804 32.0625 61.9161 32.0625 61.75V57C32.0625 56.7847 32.004 56.5735 31.8933 56.389L28.3308 50.4515C28.1856 50.2095 27.959 50.0272 27.6916 49.9371C27.4242 49.8471 27.1334 49.8551 26.8715 49.9599L20.934 52.3349C20.7136 52.4231 20.5247 52.5752 20.3917 52.7717C20.2586 52.9683 20.1875 53.2001 20.1875 53.4375V58.1875C20.1875 58.5024 20.3126 58.8045 20.5353 59.0272L22.5625 61.0543V72.4375C22.5625 72.7524 22.6876 73.0545 22.9103 73.2772C23.133 73.4999 23.4351 73.625 23.75 73.625ZM22.5625 54.2414L26.8146 52.5406L29.6875 57.3289V61.498L25.3532 71.25H24.9375V60.5625C24.9375 60.2475 24.8124 59.9454 24.5897 59.7227L22.5625 57.6956V54.2414Z" fill="#181940"/>
<path d="M39.2332 69.2013C39.3041 69.4494 39.4539 69.6677 39.6599 69.823C39.8659 69.9784 40.117 70.0625 40.375 70.0625H43.9375C44.1469 70.0625 44.3525 70.0072 44.5336 69.9021C44.7146 69.797 44.8647 69.6459 44.9685 69.4641L49.7185 61.1516C49.8211 60.9722 49.875 60.7691 49.875 60.5625V55.8125C49.875 55.4976 49.7499 55.1955 49.5272 54.9728C49.3045 54.7501 49.0024 54.625 48.6875 54.625H45.6812L40.0998 47.9273C39.9884 47.7936 39.8489 47.686 39.6912 47.6121C39.5336 47.5383 39.3616 47.5 39.1875 47.5H32.0625C31.7476 47.5 31.4455 47.6251 31.2228 47.8478C31.0001 48.0705 30.875 48.3726 30.875 48.6875V51.0625C30.875 51.2851 30.9375 51.5032 31.0555 51.6919L36.9042 61.0499L39.2332 69.2013ZM33.25 49.875H38.6313L44.2127 56.5727C44.3241 56.7064 44.4636 56.814 44.6213 56.8879C44.7789 56.9617 44.9509 57 45.125 57H47.5V60.2472L43.2484 67.6875H41.2707L39.1418 60.2362C39.1113 60.1294 39.0659 60.0273 39.007 59.9331L33.25 50.722V49.875Z" fill="#181940"/>
<path d="M65.889 71.0808C66.0736 71.1915 66.2848 71.2499 66.5 71.25H70.0625C70.3774 71.25 70.6795 71.1249 70.9022 70.9022C71.1249 70.6795 71.25 70.3774 71.25 70.0625V62.9375C71.25 62.6225 71.1249 62.3205 70.9022 62.0978L68.5272 59.7228C68.3045 59.5001 68.0024 59.375 67.6875 59.375H62.9375C62.6226 59.375 62.3205 59.5001 62.0978 59.7228L59.7228 62.0978C59.5001 62.3205 59.375 62.6225 59.375 62.9375V66.5C59.375 66.7051 59.4281 66.9066 59.5291 67.0851C59.6302 67.2635 59.7757 67.4128 59.9515 67.5183L65.889 71.0808ZM61.75 63.4293L63.4294 61.75H67.1956L68.875 63.4293V68.875H66.8289L61.75 65.8277V63.4293Z" fill="#181940"/>
<path d="M20.1875 14.25V11.875H14.25C13.9351 11.875 13.633 12.0001 13.4103 12.2228C13.1876 12.4455 13.0625 12.7476 13.0625 13.0625V34.6418C12.2702 34.9219 11.6024 35.4731 11.1772 36.198C10.752 36.9228 10.5967 37.7747 10.7388 38.603C10.8809 39.4312 11.3113 40.1826 11.9538 40.7243C12.5963 41.266 13.4096 41.563 14.25 41.563C15.0904 41.563 15.9037 41.266 16.5462 40.7243C17.1887 40.1826 17.6191 39.4312 17.7612 38.603C17.9033 37.7747 17.748 36.9228 17.3228 36.198C16.8976 35.4731 16.2298 34.9219 15.4375 34.6418V14.25H20.1875ZM14.25 39.1875C14.0151 39.1875 13.7856 39.1179 13.5903 38.9874C13.395 38.8569 13.2428 38.6714 13.1529 38.4544C13.063 38.2374 13.0395 37.9987 13.0853 37.7683C13.1311 37.538 13.2442 37.3264 13.4103 37.1603C13.5764 36.9942 13.788 36.8811 14.0183 36.8353C14.2487 36.7895 14.4875 36.813 14.7044 36.9029C14.9214 36.9928 15.1069 37.145 15.2374 37.3403C15.3679 37.5355 15.4375 37.7651 15.4375 38C15.4371 38.3148 15.3119 38.6167 15.0893 38.8393C14.8667 39.0619 14.5648 39.1871 14.25 39.1875Z" fill="#181940"/>
<path d="M61.75 11.875H55.8125V14.25H60.5625V33.4543C59.7702 33.7344 59.1024 34.2856 58.6772 35.0105C58.252 35.7353 58.0967 36.5872 58.2388 37.4155C58.3809 38.2437 58.8113 38.9951 59.4538 39.5368C60.0963 40.0785 60.9096 40.3755 61.75 40.3755C62.5904 40.3755 63.4037 40.0785 64.0462 39.5368C64.6887 38.9951 65.1191 38.2437 65.2612 37.4155C65.4033 36.5872 65.248 35.7353 64.8228 35.0105C64.3976 34.2856 63.7298 33.7344 62.9375 33.4543V13.0625C62.9375 12.7476 62.8124 12.4455 62.5897 12.2228C62.367 12.0001 62.0649 11.875 61.75 11.875ZM61.75 38C61.5151 38 61.2855 37.9304 61.0903 37.7999C60.895 37.6694 60.7428 37.4839 60.6529 37.2669C60.563 37.0499 60.5395 36.8112 60.5853 36.5808C60.6311 36.3505 60.7442 36.1389 60.9103 35.9728C61.0764 35.8067 61.288 35.6936 61.5183 35.6478C61.7487 35.602 61.9874 35.6255 62.2044 35.7154C62.4214 35.8053 62.6069 35.9575 62.7374 36.1528C62.8678 36.348 62.9375 36.5776 62.9375 36.8125C62.9371 37.1273 62.8119 37.4292 62.5893 37.6518C62.3667 37.8744 62.0648 37.9996 61.75 38Z" fill="#181940"/>
</svg>
