<svg width="76" height="76" viewBox="0 0 76 76" fill="none" xmlns="http://www.w3.org/2000/svg">
<path d="M72.4375 25.4659C72.4372 25.8902 72.2803 26.2993 71.9967 26.6149L67.3327 31.7968L64.0953 35.3949C63.3465 36.2269 62.4288 36.8895 61.4035 37.3387C60.3782 37.7878 59.2689 38.0131 58.1497 37.9994C57.0304 37.9858 55.927 37.7336 54.913 37.2596C53.8989 36.7857 52.9976 36.1009 52.2693 35.2509L47.5 29.6875C47.8411 30.7106 47.8362 31.8175 47.4862 32.8376C47.1361 33.8577 46.4603 34.7344 45.5629 35.3326L45.125 35.625L46.3125 42.75H29.6875L30.875 35.625L30.4371 35.3326C29.5397 34.7345 28.8638 33.8578 28.5138 32.8377C28.1637 31.8176 28.1589 30.7106 28.5 29.6875L23.7307 35.2509C23.0024 36.1009 22.1011 36.7857 21.087 37.2596C20.073 37.7336 18.9695 37.9858 17.8503 37.9994C16.731 38.013 15.6218 37.7878 14.5965 37.3387C13.5712 36.8895 12.6535 36.2269 11.9047 35.3949L8.66729 31.7968L4.00336 26.6149C3.86254 26.4583 3.75182 26.2772 3.6768 26.0805C3.60084 25.8845 3.56208 25.6761 3.5625 25.4659C3.56307 25.011 3.74404 24.5749 4.06572 24.2532C4.3874 23.9315 4.82353 23.7506 5.27845 23.75C5.7079 23.7502 6.12772 23.8772 6.48523 24.1152L9.5 26.125L10.2823 24.562C10.43 24.2661 10.6733 24.0288 10.9728 23.8885C11.2722 23.7483 11.6103 23.7133 11.9322 23.7892C12.254 23.8652 12.5408 24.0476 12.7459 24.307C12.9511 24.5663 13.0627 24.8874 13.0625 25.218V28.5L17.8125 30.875L24.7059 22.9974C25.1515 22.4876 25.701 22.0791 26.3175 21.7992C26.934 21.5194 27.6033 21.3747 28.2803 21.375H47.7197C48.3967 21.3747 49.066 21.5194 49.6825 21.7992C50.2991 22.0791 50.8485 22.4876 51.2941 22.9974L58.1875 30.875L62.9375 28.5V25.218C62.9374 24.8874 63.0489 24.5663 63.2541 24.307C63.4592 24.0476 63.746 23.8652 64.0679 23.7892C64.3897 23.7133 64.7278 23.7483 65.0272 23.8885C65.3267 24.0288 65.57 24.2661 65.7177 24.562L66.5 26.125L69.5148 24.1152C69.6924 23.9968 69.8864 23.9053 70.0907 23.8435C70.2953 23.7819 70.5078 23.7504 70.7216 23.75C71.1765 23.7506 71.6126 23.9315 71.9343 24.2532C72.256 24.5749 72.4369 25.011 72.4375 25.4659Z" fill="#FFCEB6"/>
<path d="M67.3327 31.7968L64.0952 35.3949C63.3464 36.2269 62.4287 36.8895 61.4034 37.3387C60.3782 37.7878 59.2689 38.0131 58.1496 37.9994C57.0304 37.9858 55.9269 37.7336 54.9129 37.2596C53.8989 36.7857 52.9976 36.1009 52.2692 35.2509L47.5 29.6875C47.841 30.7106 47.8361 31.8175 47.4861 32.8376C47.1361 33.8577 46.4603 34.7344 45.5629 35.3326L45.125 35.625L46.3125 42.75H29.6875L30.875 35.625L30.4371 35.3326C29.5396 34.7345 28.8638 33.8578 28.5137 32.8377C28.1637 31.8176 28.1588 30.7106 28.5 29.6875L23.7307 35.2509C23.0023 36.1009 22.101 36.7857 21.087 37.2596C20.073 37.7336 18.9695 37.9858 17.8502 37.9994C16.731 38.013 15.6217 37.7878 14.5964 37.3387C13.5712 36.8895 12.6535 36.2269 11.9046 35.3949L8.66724 31.7968L13.0624 28.5L17.8124 30.875L24.7059 22.9974C25.1514 22.4876 25.7009 22.0791 26.3174 21.7992C26.9339 21.5194 27.6032 21.3747 28.2803 21.375H47.7196C48.3967 21.3747 49.066 21.5194 49.6825 21.7992C50.299 22.0791 50.8485 22.4876 51.294 22.9974L58.1875 30.875L62.9375 28.5L67.3327 31.7968Z" fill="white"/>
<path d="M58.1875 47.5V51.0625L52.25 59.375V73.625H23.75V59.375L17.8125 51.0625V47.5H58.1875Z" fill="#E8C8AA"/>
<path d="M60.5625 42.75H15.4375V47.5H60.5625V42.75Z" fill="#E8C8AA"/>
<path d="M28.5 73.625V66.5C29.1299 66.5 29.734 66.2498 30.1794 65.8044C30.6248 65.359 30.875 64.7549 30.875 64.125H45.125C45.125 64.7549 45.3752 65.359 45.8206 65.8044C46.266 66.2498 46.8701 66.5 47.5 66.5V73.625H28.5Z" fill="#E8C8AA"/>
<path d="M41.5625 21.375L38 28.5L34.4375 21.375H41.5625Z" fill="#FFCEB6"/>
<path d="M34.4375 17.8125C38.3725 17.8125 41.5625 14.6225 41.5625 10.6875C41.5625 6.75247 38.3725 3.5625 34.4375 3.5625C30.5025 3.5625 27.3125 6.75247 27.3125 10.6875C27.3125 14.6225 30.5025 17.8125 34.4375 17.8125Z" fill="#E8C8AA"/>
<path d="M42.75 15.4375V11.875C42.75 10.6152 42.2496 9.40704 41.3588 8.51624C40.468 7.62544 39.2598 7.125 38 7.125C36.7402 7.125 35.532 7.62544 34.6412 8.51624C33.7504 9.40704 33.25 10.6152 33.25 11.875V15.4375H42.75Z" fill="#E8C8AA"/>
<path d="M38 22.5625C36.7402 22.5625 35.532 22.0621 34.6412 21.1713C33.7504 20.2805 33.25 19.0723 33.25 17.8125V15.4375L36.8125 11.875C37.1583 12.9124 37.8217 13.8147 38.7088 14.4541C39.5959 15.0934 40.6617 15.4375 41.7552 15.4375H42.75V17.8125C42.75 19.0723 42.2496 20.2805 41.3588 21.1713C40.468 22.0621 39.2598 22.5625 38 22.5625Z" fill="#FFCEB6"/>
<path d="M70.7212 22.5625C70.0572 22.5619 69.408 22.7585 68.8559 23.1274L66.9605 24.3908L66.7802 24.0302C66.5127 23.4952 66.0723 23.0662 65.5305 22.8127C64.9888 22.5593 64.3773 22.4961 63.7951 22.6336C63.213 22.771 62.6943 23.101 62.3231 23.5701C61.9519 24.0391 61.75 24.6197 61.75 25.2179V27.7661L58.477 29.4026L52.188 22.2151C51.6307 21.5782 50.9437 21.0678 50.173 20.7181C49.4024 20.3684 48.5659 20.1875 47.7196 20.1875H43.4402C43.7687 19.4388 43.938 18.6301 43.9375 17.8125V11.875C43.9379 11.0922 43.783 10.317 43.4818 9.59436C43.1806 8.87176 42.739 8.21609 42.1826 7.66532C41.6688 6.3487 40.8277 5.18483 39.7389 4.28367C38.6501 3.38251 37.3495 2.77382 35.96 2.5151C34.5706 2.25639 33.1381 2.35619 31.7979 2.80508C30.4577 3.25397 29.2541 4.03713 28.3008 5.08057C27.3475 6.12401 26.676 7.39326 26.3496 8.76842C26.0233 10.1436 26.0529 11.5792 26.4358 12.9398C26.8186 14.3003 27.542 15.5407 28.5376 16.5439C29.5332 17.5471 30.7681 18.2799 32.1256 18.6731C32.2018 19.1951 32.3478 19.7044 32.5598 20.1875H28.2804C27.4341 20.1875 26.5976 20.3684 25.8269 20.7181C25.0563 21.0678 24.3693 21.5782 23.812 22.2151L17.523 29.4026L14.25 27.7661V25.2179C14.25 24.6197 14.048 24.0391 13.6768 23.57C13.3056 23.101 12.7869 22.771 12.2047 22.6336C11.6226 22.4961 11.011 22.5593 10.4693 22.8128C9.92747 23.0663 9.48715 23.4954 9.21964 24.0304L9.03946 24.3908L7.14413 23.1274C6.59202 22.7585 5.9428 22.5619 5.2788 22.5625C4.71748 22.5625 4.1682 22.7252 3.69742 23.0309C3.22665 23.3366 2.85456 23.7722 2.62619 24.285C2.39782 24.7977 2.32296 25.3657 2.41067 25.9201C2.49837 26.4746 2.74489 26.9917 3.12037 27.4089L11.0225 36.1891C11.8842 37.1466 12.9403 37.9092 14.1202 38.4262C15.3001 38.9431 16.5766 39.2024 17.8647 39.1869C19.1528 39.1713 20.4227 38.8811 21.5897 38.3358C22.7567 37.7905 23.794 37.0025 24.6324 36.0245L27.2974 32.9152C27.671 34.2285 28.4741 35.3787 29.5783 36.1819L28.6815 41.5625H15.4375C15.1226 41.5625 14.8205 41.6876 14.5978 41.9103C14.3751 42.133 14.25 42.4351 14.25 42.75V47.5C14.25 47.815 14.3751 48.117 14.5978 48.3397C14.8205 48.5624 15.1226 48.6875 15.4375 48.6875H16.625V51.0625C16.625 51.31 16.7024 51.5513 16.8462 51.7527L22.5625 59.7556V73.625H24.9375V60.5625H30.875V58.1875H24.3611L19 50.6819V48.6875H57V50.682L51.6389 58.1875H42.75V60.5625H51.0625V73.625H53.4375V59.7556L59.1538 51.7527C59.2976 51.5513 59.375 51.31 59.375 51.0625V48.6875H60.5625C60.8774 48.6875 61.1795 48.5624 61.4022 48.3397C61.6249 48.117 61.75 47.815 61.75 47.5V42.75C61.75 42.4351 61.6249 42.133 61.4022 41.9103C61.1795 41.6876 60.8774 41.5625 60.5625 41.5625H47.3185L46.4216 36.1819C47.5259 35.3787 48.329 34.2285 48.7026 32.9152L51.3676 36.0245C52.206 37.0025 53.2433 37.7905 54.4103 38.3358C55.5773 38.8811 56.8472 39.1713 58.1353 39.1869C59.4234 39.2024 60.7 38.9431 61.8798 38.4262C63.0597 37.9092 64.1158 37.1465 64.9775 36.1891L72.8798 27.4088C73.2552 26.9916 73.5017 26.4745 73.5894 25.92C73.677 25.3656 73.6021 24.7977 73.3738 24.2849C73.1454 23.7722 72.7733 23.3366 72.3025 23.0309C71.8318 22.7253 71.2825 22.5626 70.7212 22.5625ZM43.4774 23.75H41.7027L42.2964 22.5625H43.0815L43.4774 23.75ZM32.9184 22.5625H33.7036L34.2974 23.75H32.5226L32.9184 22.5625ZM41.5625 11.875V14.2424C40.7521 14.2048 39.9722 13.9226 39.3254 13.433C38.6785 12.9433 38.1952 12.2692 37.9391 11.4995C37.8751 11.3075 37.7631 11.135 37.6136 10.9984C37.4642 10.8619 37.2823 10.7658 37.0853 10.7193C36.8883 10.6728 36.6827 10.6774 36.488 10.7327C36.2932 10.788 36.1159 10.8922 35.9727 11.0354L34.4375 12.5706V11.875C34.4375 10.9302 34.8128 10.0241 35.4809 9.35596C36.149 8.68786 37.0552 8.31253 38 8.31253C38.9448 8.31253 39.851 8.68786 40.5191 9.35596C41.1872 10.0241 41.5625 10.9302 41.5625 11.875ZM34.4375 15.9294L36.4953 13.8716C37.0652 14.6952 37.8208 15.3732 38.701 15.851C39.5812 16.3288 40.5614 16.5929 41.5625 16.6221V17.8125C41.5625 18.7574 41.1872 19.6635 40.5191 20.3316C39.851 20.9997 38.9448 21.375 38 21.375C37.0552 21.375 36.149 20.9997 35.4809 20.3316C34.8128 19.6635 34.4375 18.7574 34.4375 17.8125V15.9294ZM38 25.8447L36.9008 23.6464C37.6271 23.7846 38.3729 23.7846 39.0991 23.6464L38 25.8447ZM35.7784 26.7122L36.8125 28.7803V32.7582L33.6305 29.5761L35.7784 26.7122ZM39.1875 28.7803L40.2216 26.7122L42.3695 29.5761L39.1875 32.7582V28.7803ZM28.5 10.6875C28.4997 9.58498 28.8065 8.50413 29.3859 7.56614C29.9654 6.62814 30.7947 5.87008 31.7808 5.37692C32.7669 4.88376 33.8709 4.67499 34.9689 4.77402C36.067 4.87305 37.1159 5.27595 37.9978 5.93758C36.424 5.93993 34.9154 6.56631 33.8028 7.67935C32.6901 8.79238 32.0643 10.3012 32.0625 11.875V16.1333C31.0014 15.6731 30.0984 14.9121 29.4653 13.9442C28.8321 12.9763 28.4965 11.8441 28.5 10.6875ZM4.74999 25.4664C4.75012 25.3262 4.80588 25.1918 4.90502 25.0926C5.00416 24.9935 5.13859 24.9377 5.2788 24.9375C5.47385 24.9373 5.66457 24.9951 5.82675 25.1034L8.8413 27.1131C8.9814 27.2065 9.13975 27.269 9.30587 27.2965C9.47198 27.3241 9.64205 27.316 9.80479 27.2727C9.96753 27.2295 10.1192 27.1522 10.2498 27.0459C10.3803 26.9396 10.4868 26.8067 10.5621 26.6561L11.3439 25.0927C11.3721 25.0362 11.4185 24.9908 11.4757 24.964C11.5329 24.9372 11.5975 24.9305 11.659 24.945C11.7205 24.9595 11.7753 24.9943 11.8145 25.0439C11.8537 25.0934 11.875 25.1547 11.875 25.2179V27.9063L8.82318 30.1952L4.88581 25.8203C4.79833 25.7232 4.74994 25.5971 4.74999 25.4664ZM59.375 46.3125H16.625V43.9375H59.375V46.3125ZM63.2122 34.6002C62.5764 35.3067 61.7973 35.8694 60.9268 36.2508C60.0562 36.6322 59.1144 36.8235 58.1641 36.812C57.2137 36.8005 56.2768 36.5865 55.4158 36.1841C54.5547 35.7818 53.7894 35.2004 53.1709 34.4788L48.4016 28.9147C48.2224 28.7057 47.9762 28.5654 47.705 28.5179C47.4338 28.4704 47.1545 28.5185 46.9149 28.6542C46.6753 28.7898 46.4903 29.0045 46.3915 29.2615C46.2928 29.5185 46.2863 29.8018 46.3734 30.063C46.6307 30.8392 46.6263 31.6784 46.3609 32.4518C46.0955 33.2253 45.5837 33.8904 44.9041 34.345L44.4662 34.6371C44.2759 34.764 44.1263 34.9431 44.0353 35.153C43.9444 35.3629 43.916 35.5946 43.9536 35.8202L44.9106 41.5625H31.0893L32.0464 35.8202C32.084 35.5946 32.0556 35.3629 31.9647 35.153C31.8737 34.9431 31.7241 34.764 31.5338 34.6371L31.0958 34.345C30.4161 33.8903 29.9044 33.2252 29.639 32.4518C29.3737 31.6783 29.3693 30.8392 29.6266 30.063C29.7136 29.8018 29.7072 29.5185 29.6084 29.2615C29.5097 29.0045 29.3246 28.7898 29.0851 28.6542C28.8455 28.5185 28.5662 28.4704 28.295 28.5179C28.0238 28.5654 27.7775 28.7057 27.5984 28.9147L22.8291 34.4788C22.2106 35.2004 21.4453 35.7817 20.5842 36.1841C19.7232 36.5865 18.7863 36.8005 17.8359 36.812C16.8856 36.8235 15.9438 36.6322 15.0732 36.2508C14.2027 35.8694 13.4236 35.3067 12.7878 34.6003L10.4183 31.9675L13.1878 29.8904L17.2814 31.9371C17.5164 32.0547 17.7837 32.0909 18.0416 32.0402C18.2994 31.9895 18.5331 31.8548 18.7062 31.657L25.5994 23.7791C25.9337 23.3969 26.3459 23.0907 26.8083 22.8809C27.2707 22.6711 27.7726 22.5625 28.2804 22.5625H30.4149L29.7484 24.562C29.6889 24.7405 29.6726 24.9306 29.701 25.1166C29.7294 25.3026 29.8016 25.4792 29.9116 25.6319C30.0216 25.7845 30.1664 25.9089 30.3339 25.9946C30.5014 26.0803 30.6868 26.125 30.875 26.125H33.25L31.1124 28.9751C30.941 29.2037 30.8577 29.4866 30.878 29.7717C30.8982 30.0568 31.0206 30.3251 31.2227 30.5272L37.1602 36.4647C37.383 36.6874 37.685 36.8125 38 36.8125C38.315 36.8125 38.617 36.6874 38.8397 36.4647L44.7772 30.5272C44.9793 30.3251 45.1018 30.0568 45.122 29.7717C45.1423 29.4866 45.059 29.2037 44.8876 28.9751L42.75 26.125H45.125C45.3132 26.125 45.4986 26.0803 45.6661 25.9946C45.8336 25.9089 45.9784 25.7845 46.0884 25.6319C46.1984 25.4792 46.2706 25.3026 46.299 25.1166C46.3273 24.9306 46.3111 24.7405 46.2516 24.562L45.5851 22.5625H47.7196C48.2274 22.5625 48.7293 22.6711 49.1917 22.8809C49.6541 23.0907 50.0663 23.3969 50.4006 23.7791L57.2938 31.657C57.4669 31.8548 57.7006 31.9895 57.9584 32.0402C58.2162 32.0909 58.4836 32.0547 58.7186 31.9371L62.8122 29.8904L65.5817 31.9675L63.2122 34.6002ZM71.1143 25.8202L67.1768 30.1952L64.125 27.9063V25.2179C64.125 25.1547 64.1463 25.0934 64.1855 25.0439C64.2247 24.9944 64.2795 24.9595 64.3409 24.945C64.4024 24.9305 64.467 24.9372 64.5242 24.9639C64.5814 24.9907 64.6279 25.036 64.6561 25.0925L65.4379 26.6561C65.5132 26.8067 65.6196 26.9396 65.7502 27.0459C65.8808 27.1522 66.0325 27.2295 66.1952 27.2727C66.3579 27.316 66.528 27.3241 66.6941 27.2965C66.8602 27.269 67.0186 27.2065 67.1587 27.1131L70.1732 25.1034C70.3354 24.9951 70.5261 24.9373 70.7212 24.9375C70.8234 24.9375 70.9234 24.9672 71.0092 25.0229C71.0949 25.0785 71.1627 25.1579 71.2042 25.2513C71.2458 25.3446 71.2595 25.4481 71.2435 25.549C71.2275 25.65 71.1827 25.7442 71.1143 25.8202Z" fill="#181940"/>
<path d="M40.375 58.1875H38V60.5625H40.375V58.1875Z" fill="#181940"/>
<path d="M29.6875 64.125C29.6871 64.4398 29.5619 64.7417 29.3393 64.9643C29.1167 65.1869 28.8148 65.3121 28.5 65.3125C28.1851 65.3125 27.883 65.4376 27.6603 65.6603C27.4376 65.883 27.3125 66.1851 27.3125 66.5V73.625H29.6875V67.484C30.1879 67.3058 30.6423 67.0185 31.0179 66.6429C31.3935 66.2673 31.6808 65.8129 31.859 65.3125H44.141C44.3192 65.8129 44.6065 66.2673 44.9821 66.6429C45.3577 67.0185 45.8121 67.3058 46.3125 67.484V73.625H48.6875V66.5C48.6875 66.1851 48.5624 65.883 48.3397 65.6603C48.117 65.4376 47.8149 65.3125 47.5 65.3125C47.1852 65.3121 46.8833 65.1869 46.6607 64.9643C46.4381 64.7417 46.3129 64.4398 46.3125 64.125C46.3125 63.8101 46.1874 63.508 45.9647 63.2853C45.742 63.0626 45.4399 62.9375 45.125 62.9375H30.875C30.5601 62.9375 30.258 63.0626 30.0353 63.2853C29.8126 63.508 29.6875 63.8101 29.6875 64.125Z" fill="#181940"/>
</svg>
