<svg width="76" height="76" viewBox="0 0 76 76" fill="none" xmlns="http://www.w3.org/2000/svg">
<path d="M10.6875 19C12.655 19 14.25 17.405 14.25 15.4375C14.25 13.47 12.655 11.875 10.6875 11.875C8.71999 11.875 7.125 13.47 7.125 15.4375C7.125 17.405 8.71999 19 10.6875 19Z" fill="white"/>
<path d="M10.0938 19V16.625C10.0938 15.9951 10.344 15.391 10.7894 14.9456C11.2348 14.5002 11.8389 14.25 12.4688 14.25C13.0986 14.25 13.7027 14.5002 14.1481 14.9456C14.5935 15.391 14.8438 15.9951 14.8438 16.625V19H10.0938Z" fill="white"/>
<path d="M17.8125 59.375L21.375 62.9375V64.125H3.5625V62.9375L7.125 59.375H17.8125Z" fill="#D1E4FF"/>
<path d="M16.625 40.375H17.8125C18.7573 40.375 19.6635 39.9997 20.3316 39.3316C20.9997 38.6635 21.375 37.7573 21.375 36.8125V34.4375H16.625V40.375Z" fill="white"/>
<path d="M8.3125 40.375H7.125C6.18017 40.375 5.27403 39.9997 4.60593 39.3316C3.93783 38.6635 3.5625 37.7573 3.5625 36.8125V34.4375H8.3125V40.375Z" fill="white"/>
<path d="M21.375 34.4375V24.9375C21.375 23.9927 20.9997 23.0865 20.3316 22.4184C19.6635 21.7503 18.7573 21.375 17.8125 21.375H7.125C6.18017 21.375 5.27403 21.7503 4.60593 22.4184C3.93783 23.0865 3.5625 23.9927 3.5625 24.9375V34.4375H21.375Z" fill="#E8C8AA"/>
<path d="M58.1875 59.375H67.6875L71.25 62.9375V64.125H54.625V62.9375L58.1875 59.375Z" fill="#D1E4FF"/>
<path d="M58.1875 45.125H67.6875V59.375H58.1875V45.125Z" fill="white"/>
<path d="M53.4375 30.875V38C53.4375 38.9448 53.8128 39.851 54.4809 40.5191C55.149 41.1872 56.0552 41.5625 57 41.5625H58.1875V30.875H53.4375Z" fill="white"/>
<path d="M67.6875 21.375C68.9473 21.375 70.1555 21.8754 71.0463 22.7662C71.9371 23.657 72.4375 24.8652 72.4375 26.125V30.875H67.6875V34.4375H58.1875V30.875H53.4375V26.125C53.4375 24.8652 53.9379 23.657 54.8287 22.7662C55.7195 21.8754 56.9277 21.375 58.1875 21.375H67.6875Z" fill="#E8C8AA"/>
<path d="M65.3125 19V16.625C65.3125 15.9951 65.0623 15.391 64.6169 14.9456C64.1715 14.5002 63.5674 14.25 62.9375 14.25C62.3076 14.25 61.7035 14.5002 61.2581 14.9456C60.8127 15.391 60.5625 15.9951 60.5625 16.625V19H65.3125Z" fill="white"/>
<path d="M30.875 36.8125H45.125V59.375H30.875V36.8125Z" fill="white"/>
<path d="M45.125 41.5625H46.3125C47.2573 41.5625 48.1635 41.1872 48.8316 40.5191C49.4997 39.851 49.875 38.9448 49.875 38V35.625H45.125V41.5625Z" fill="white"/>
<path d="M30.875 41.5625H29.6875C28.7427 41.5625 27.8365 41.1872 27.1684 40.5191C26.5003 39.851 26.125 38.9448 26.125 38V35.625H30.875V41.5625Z" fill="white"/>
<path d="M26.125 35.625V26.125C26.125 24.8652 26.6254 23.657 27.5162 22.7662C28.407 21.8754 29.6152 21.375 30.875 21.375H45.125C46.3848 21.375 47.593 21.8754 48.4838 22.7662C49.3746 23.657 49.875 24.8652 49.875 26.125V35.625H45.125V36.8125H30.875V35.625H26.125Z" fill="#E8C8AA"/>
<path d="M45.125 59.375L47.5 62.9375V64.125H28.5V62.9375L30.875 59.375H45.125Z" fill="#D1E4FF"/>
<path d="M12.4688 22.5625C11.8389 22.5625 11.2348 22.3123 10.7894 21.8669C10.344 21.4215 10.0938 20.8174 10.0938 20.1875V19L11.2812 17.8125L14.8438 19V20.1875C14.8438 20.8174 14.5935 21.4215 14.1481 21.8669C13.7027 22.3123 13.0986 22.5625 12.4688 22.5625Z" fill="white"/>
<path d="M58.1875 34.4375H67.6875V45.125H58.1875V34.4375Z" fill="white"/>
<path d="M62.9375 22.5625C62.3076 22.5625 61.7035 22.3123 61.2581 21.8669C60.8127 21.4215 60.5625 20.8174 60.5625 20.1875V19L62.9375 17.8125H65.3125V20.1875C65.3125 20.8174 65.0623 21.4215 64.6169 21.8669C64.1715 22.3123 63.5674 22.5625 62.9375 22.5625Z" fill="white"/>
<path d="M8.3125 34.4375L5.9375 46.3125H19L16.625 34.4375H8.3125Z" fill="white"/>
<path d="M7.125 46.3125H17.8125V59.375H7.125V46.3125Z" fill="white"/>
<path d="M38 22.5625C37.3701 22.5625 36.766 22.3123 36.3206 21.8669C35.8752 21.4215 35.625 20.8174 35.625 20.1875V19L36.8125 17.8125H40.375V20.1875C40.375 20.8174 40.1248 21.4215 39.6794 21.8669C39.234 22.3123 38.6299 22.5625 38 22.5625Z" fill="white"/>
<path d="M40.375 17.8125L41.0706 17.1169C41.3856 16.8019 41.5625 16.3748 41.5625 15.9294C41.5625 15.7088 41.5191 15.4905 41.4347 15.2867C41.3503 15.083 41.2266 14.8978 41.0706 14.7419C40.9147 14.5859 40.7295 14.4622 40.5258 14.3778C40.322 14.2934 40.1037 14.25 39.8831 14.25H38C37.3701 14.25 36.766 14.5002 36.3206 14.9456C35.8752 15.391 35.625 15.9951 35.625 16.625V19L36.8125 17.8125H40.375Z" fill="white"/>
<path d="M72.4375 30.875V38C72.4375 38.9448 72.0622 39.851 71.3941 40.5191C70.726 41.1872 69.8198 41.5625 68.875 41.5625H67.6875V30.875H72.4375Z" fill="white"/>
<path d="M27.512 62.2788C27.3819 62.4739 27.3125 62.7031 27.3125 62.9375V64.125C27.3125 64.2809 27.3432 64.4354 27.4029 64.5794C27.4626 64.7235 27.55 64.8544 27.6603 64.9647C27.7706 65.075 27.9015 65.1624 28.0456 65.2221C28.1896 65.2818 28.3441 65.3125 28.5 65.3125H47.5C47.6559 65.3125 47.8104 65.2818 47.9544 65.2221C48.0985 65.1624 48.2294 65.075 48.3397 64.9647C48.45 64.8544 48.5374 64.7235 48.5971 64.5794C48.6568 64.4354 48.6875 64.2809 48.6875 64.125V62.9375C48.6875 62.7031 48.6181 62.4739 48.488 62.2788L46.3125 59.0154V42.75C47.5718 42.7486 48.7792 42.2477 49.6697 41.3572C50.5602 40.4667 51.0611 39.2593 51.0625 38V26.125C51.0607 24.5508 50.4346 23.0416 49.3215 21.9285C48.2084 20.8154 46.6992 20.1893 45.125 20.1875H41.5625V18.3043L41.9103 17.9565C42.3113 17.5556 42.5843 17.0448 42.6949 16.4886C42.8055 15.9325 42.7488 15.3561 42.5318 14.8323C42.3148 14.3084 41.9473 13.8607 41.4759 13.5457C41.0044 13.2306 40.4502 13.0625 39.8832 13.0625H38C37.0555 13.0636 36.15 13.4392 35.4821 14.1071C34.8142 14.775 34.4386 15.6805 34.4375 16.625V20.1875H30.875C29.3008 20.1893 27.7916 20.8154 26.6785 21.9285C25.5654 23.0416 24.9393 24.5508 24.9375 26.125V38C24.9389 39.2593 25.4398 40.4667 26.3303 41.3572C27.2208 42.2477 28.4282 42.7486 29.6875 42.75V59.0154L27.512 62.2788ZM32.0625 38H43.9375V58.1875H39.1875V41.5625H36.8125V58.1875H32.0625V38ZM31.5105 60.5625H36.8125V62.9375H29.9272L31.5105 60.5625ZM39.1875 62.9375V60.5625H44.4895L46.0728 62.9375H39.1875ZM46.3125 40.375V36.8125H48.6875V38C48.6868 38.6297 48.4363 39.2333 47.9911 39.6786C47.5458 40.1238 46.9422 40.3743 46.3125 40.375ZM38 21.375C37.6852 21.3746 37.3833 21.2494 37.1607 21.0268C36.9381 20.8042 36.8129 20.5023 36.8125 20.1875V19.4918L37.3043 19H39.1875V20.1875C39.1871 20.5023 39.0619 20.8042 38.8393 21.0268C38.6167 21.2494 38.3148 21.3746 38 21.375ZM38 15.4375H39.8832C39.9804 15.4375 40.0755 15.4664 40.1564 15.5204C40.2373 15.5745 40.3003 15.6513 40.3376 15.7411C40.3748 15.831 40.3845 15.9299 40.3656 16.0253C40.3466 16.1207 40.2998 16.2084 40.231 16.2772L39.8832 16.625H36.8125C36.8129 16.3102 36.9381 16.0083 37.1607 15.7857C37.3833 15.5631 37.6852 15.4379 38 15.4375ZM30.875 22.5625H35.3475C35.5011 22.7339 35.6707 22.8901 35.8541 23.029L33.5978 25.2853L35.2772 26.9647L36.8125 25.4293V32.0625H39.1875V25.4293L40.7228 26.9647L42.4022 25.2853L40.1459 23.029C40.3293 22.8901 40.4989 22.7339 40.6525 22.5625H45.125C46.0695 22.5636 46.975 22.9392 47.6429 23.6071C48.3108 24.275 48.6864 25.1805 48.6875 26.125V34.4375H46.3125V27.3125H43.9375V35.625H32.0625V27.3125H29.6875V34.4375H27.3125V26.125C27.3136 25.1805 27.6892 24.275 28.3571 23.6071C29.025 22.9392 29.9305 22.5636 30.875 22.5625ZM27.3125 38V36.8125H29.6875V40.375C29.0578 40.3743 28.4542 40.1238 28.0089 39.6786C27.5637 39.2333 27.3132 38.6297 27.3125 38Z" fill="#181940"/>
<path d="M67.6875 20.1875H66.5V16.625C66.5 15.6802 66.1247 14.774 65.4566 14.1059C64.7885 13.4378 63.8823 13.0625 62.9375 13.0625C61.9927 13.0625 61.0865 13.4378 60.4184 14.1059C59.7503 14.774 59.375 15.6802 59.375 16.625V20.1875H58.1875C56.6133 20.1893 55.1041 20.8154 53.991 21.9285C52.8779 23.0416 52.2518 24.5508 52.25 26.125V38C52.2514 39.2593 52.7523 40.4667 53.6428 41.3572C54.5333 42.2477 55.7407 42.7486 57 42.75V58.8832L53.7853 62.0978C53.675 62.2081 53.5876 62.339 53.5279 62.4831C53.4682 62.6271 53.4375 62.7816 53.4375 62.9375V64.125C53.4375 64.2809 53.4682 64.4354 53.5279 64.5794C53.5876 64.7235 53.675 64.8544 53.7853 64.9647C53.8956 65.075 54.0265 65.1624 54.1706 65.2221C54.3146 65.2818 54.4691 65.3125 54.625 65.3125H71.25C71.4059 65.3125 71.5604 65.2818 71.7044 65.2221C71.8485 65.1624 71.9794 65.075 72.0897 64.9647C72.2 64.8544 72.2874 64.7235 72.3471 64.5794C72.4068 64.4354 72.4375 64.2809 72.4375 64.125V62.9375C72.4375 62.7816 72.4068 62.6271 72.3471 62.4831C72.2874 62.339 72.2 62.2081 72.0897 62.0978L68.875 58.8832V42.75C70.1343 42.7486 71.3417 42.2477 72.2322 41.3572C73.1227 40.4667 73.6236 39.2593 73.625 38V26.125C73.6232 24.5508 72.9971 23.0416 71.884 21.9285C70.7709 20.8154 69.2617 20.1893 67.6875 20.1875ZM62.9375 15.4375C63.2523 15.4379 63.5542 15.5631 63.7768 15.7857C63.9994 16.0083 64.1246 16.3102 64.125 16.625H62.9375C62.7531 16.625 62.5713 16.6679 62.4064 16.7504L61.75 17.0786V16.625C61.7504 16.3102 61.8756 16.0083 62.0982 15.7857C62.3208 15.5631 62.6227 15.4379 62.9375 15.4375ZM64.125 19V20.1875C64.125 20.5024 63.9999 20.8045 63.7772 21.0272C63.5545 21.2499 63.2524 21.375 62.9375 21.375C62.6226 21.375 62.3205 21.2499 62.0978 21.0272C61.8751 20.8045 61.75 20.5024 61.75 20.1875V19.7339L63.2178 19H64.125ZM58.1875 22.5625H60.285C60.6186 22.9361 61.0273 23.2349 61.4844 23.4396C61.9415 23.6442 62.4367 23.75 62.9375 23.75C63.4383 23.75 63.9335 23.6442 64.3906 23.4396C64.8477 23.2349 65.2564 22.9361 65.59 22.5625H67.6875C68.632 22.5636 69.5375 22.9392 70.2054 23.6071C70.8733 24.275 71.2489 25.1805 71.25 26.125V29.6875H68.875V27.3125H66.5V33.25H59.375V27.3125H57V29.6875H54.625V26.125C54.6261 25.1805 55.0017 24.275 55.6696 23.6071C56.3375 22.9392 57.243 22.5636 58.1875 22.5625ZM66.5 58.1875H64.125V46.3125H66.5V58.1875ZM59.375 46.3125H61.75V58.1875H59.375V46.3125ZM66.5 43.9375H64.125V39.1875H61.75V43.9375H59.375V35.625H66.5V43.9375ZM54.625 38V32.0625H57V40.375C56.3703 40.3743 55.7667 40.1238 55.3214 39.6786C54.8762 39.2333 54.6257 38.6297 54.625 38ZM58.6793 60.5625H61.75V62.9375H56.3043L58.6793 60.5625ZM69.5707 62.9375H64.125V60.5625H67.1957L69.5707 62.9375ZM68.875 40.375V32.0625H71.25V38C71.2493 38.6297 70.9988 39.2333 70.5536 39.6786C70.1083 40.1238 69.5047 40.3743 68.875 40.375Z" fill="#181940"/>
<path d="M22.5625 36.8125V24.9375C22.5611 23.6781 22.0602 22.4708 21.1697 21.5803C20.2792 20.6898 19.0718 20.1889 17.8125 20.1875H16.0312V16.625C16.0319 15.8733 15.7934 15.1409 15.3503 14.5337C15.1936 13.7255 14.8296 12.9719 14.2938 12.3468C13.7581 11.7217 13.0692 11.2466 12.2945 10.968C11.5198 10.6895 10.686 10.6171 9.87489 10.7579C9.06377 10.8987 8.30318 11.2479 7.66771 11.7712C7.03224 12.2946 6.5437 12.9741 6.25002 13.7432C5.95633 14.5123 5.86758 15.3445 5.99248 16.1582C6.11737 16.9719 6.45161 17.7392 6.96242 18.3848C7.47323 19.0304 8.14307 19.5322 8.90625 19.8409V20.1875H7.125C5.86566 20.1889 4.6583 20.6898 3.7678 21.5803C2.87731 22.4708 2.37641 23.6781 2.375 24.9375V36.8125C2.37625 37.8264 2.70133 38.8134 3.30285 39.6296C3.90437 40.4459 4.75088 41.0486 5.71897 41.35L4.77305 46.0796C4.73861 46.2519 4.74282 46.4297 4.78539 46.6001C4.82795 46.7706 4.9078 46.9295 5.01919 47.0653C5.13057 47.2012 5.27072 47.3107 5.42952 47.3858C5.58831 47.461 5.76181 47.5 5.9375 47.5V58.8832L2.72283 62.0978C2.61255 62.2081 2.52507 62.339 2.46539 62.4831C2.40571 62.6271 2.37499 62.7816 2.375 62.9375V64.125C2.375 64.2809 2.40571 64.4354 2.46538 64.5794C2.52506 64.7235 2.61253 64.8544 2.7228 64.9647C2.83307 65.075 2.96398 65.1624 3.10806 65.2221C3.25213 65.2818 3.40655 65.3125 3.5625 65.3125H21.375C21.5309 65.3125 21.6854 65.2818 21.8294 65.2221C21.9735 65.1624 22.1044 65.075 22.2147 64.9647C22.325 64.8544 22.4124 64.7235 22.4721 64.5794C22.5318 64.4354 22.5625 64.2809 22.5625 64.125V62.9375C22.5625 62.7816 22.5318 62.6271 22.4721 62.4831C22.4124 62.339 22.325 62.2081 22.2147 62.0978L19 58.8832V47.5C19.1757 47.5 19.3492 47.461 19.508 47.3858C19.6668 47.3107 19.8069 47.2012 19.9183 47.0653C20.0297 46.9295 20.1096 46.7706 20.1521 46.6001C20.1947 46.4297 20.1989 46.2519 20.1645 46.0796L19.2185 41.35C20.1866 41.0486 21.0331 40.4459 21.6346 39.6296C22.2362 38.8134 22.5613 37.8264 22.5625 36.8125ZM11.2812 19.4918L11.602 19.1711L13.6562 19.8559V20.1875C13.6562 20.5024 13.5311 20.8045 13.3084 21.0272C13.0857 21.2499 12.7837 21.375 12.4688 21.375C12.1538 21.375 11.8518 21.2499 11.6291 21.0272C11.4064 20.8045 11.2812 20.5024 11.2812 20.1875V19.4918ZM11.6568 16.6859C11.5356 16.6463 11.4088 16.6265 11.2812 16.6274V16.625C11.2812 16.31 11.4064 16.008 11.6291 15.7853C11.8518 15.5626 12.1538 15.4375 12.4688 15.4375C12.7837 15.4375 13.0857 15.5626 13.3084 15.7853C13.5311 16.008 13.6562 16.31 13.6562 16.625V17.3524L11.6568 16.6859ZM10.6875 13.0625C10.9594 13.0629 11.2292 13.11 11.4851 13.2017C10.7425 13.416 10.0895 13.8656 9.62441 14.483C9.15934 15.1004 8.90731 15.8521 8.90625 16.625V17.0034C8.60391 16.6609 8.40691 16.2385 8.33892 15.7868C8.27092 15.3351 8.33484 14.8734 8.52298 14.4571C8.71112 14.0409 9.01547 13.6878 9.39946 13.4404C9.78344 13.193 10.2307 13.0618 10.6875 13.0625ZM7.125 22.5625H9.81625C10.1498 22.936 10.5586 23.2349 11.0157 23.4396C11.4728 23.6442 11.9679 23.75 12.4688 23.75C12.9696 23.75 13.4647 23.6442 13.9218 23.4396C14.3789 23.2349 14.7877 22.936 15.1212 22.5625H17.8125C18.4422 22.5632 19.0458 22.8137 19.4911 23.2589C19.9363 23.7042 20.1868 24.3078 20.1875 24.9375V33.25H17.8125V31.3309C18.5288 30.4541 18.9456 29.371 19.0018 28.2401C19.0581 27.1093 18.7508 25.9902 18.125 25.0466L17.613 24.2788L15.637 25.5962L16.1488 26.364C16.5205 26.9242 16.6873 27.5955 16.621 28.2644C16.5548 28.9334 16.2596 29.5589 15.7853 30.0353C15.6751 30.1456 15.5876 30.2765 15.5279 30.4206C15.4682 30.5646 15.4375 30.719 15.4375 30.875V33.25H9.5V30.875C9.50001 30.719 9.46929 30.5646 9.40961 30.4206C9.34993 30.2765 9.26245 30.1456 9.15217 30.0353C8.67791 29.5589 8.3827 28.9334 8.31645 28.2645C8.25021 27.5955 8.417 26.9242 8.78862 26.3641L9.30054 25.5962L7.32446 24.2788L6.81247 25.0466C6.18669 25.9902 5.87943 27.1093 5.93566 28.2401C5.9919 29.371 6.40869 30.4541 7.125 31.3309V33.25H4.75V24.9375C4.75072 24.3078 5.00117 23.7042 5.44642 23.2589C5.89166 22.8137 6.49533 22.5632 7.125 22.5625ZM7.386 45.125L9.28602 35.625H15.6515L17.5515 45.125H7.386ZM4.75 36.8125V35.625H6.86398L6.18997 38.995C5.76297 38.8117 5.39903 38.5073 5.14312 38.1194C4.88721 37.7315 4.75054 37.2772 4.75 36.8125ZM11.2812 47.5V58.1875H8.3125V47.5H11.2812ZM7.61684 60.5625H11.2812V62.9375H5.24184L7.61684 60.5625ZM13.6562 62.9375V60.5625H17.3207L19.6957 62.9375H13.6562ZM16.625 58.1875H13.6562V47.5H16.625V58.1875ZM18.7475 38.995L18.0735 35.625H20.1875V36.8125C20.187 37.2772 20.0503 37.7315 19.7944 38.1194C19.5385 38.5073 19.1745 38.8117 18.7475 38.995Z" fill="#181940"/>
</svg>
